<?xml version="1.0" encoding="UTF-8" standalone="no"?>
<!DOCTYPE svg PUBLIC "-//W3C//DTD SVG 1.1//EN"
 "http://www.w3.org/Graphics/SVG/1.1/DTD/svg11.dtd">
<!-- Generated by graphviz version 5.0.0 (0)
 -->
<!-- Title: pipeline Pages: 1 -->
<svg width="2455pt" height="246pt"
 viewBox="0.00 0.00 2455.00 246.00" xmlns="http://www.w3.org/2000/svg" xmlns:xlink="http://www.w3.org/1999/xlink">
<g id="graph0" class="graph" transform="scale(1 1) rotate(0) translate(4 242)">
<title>pipeline</title>
<polygon fill="white" stroke="transparent" points="-4,4 -4,-242 2451,-242 2451,4 -4,4"/>
<text text-anchor="middle" x="1223.5" y="-226" font-family="sans" font-size="10.00">&lt;GstPipeline&gt;</text>
<text text-anchor="middle" x="1223.5" y="-215" font-family="sans" font-size="10.00">pipeline0</text>
<text text-anchor="middle" x="1223.5" y="-204" font-family="sans" font-size="10.00">[&gt;]</text>
<g id="clust1" class="cluster">
<title>cluster_capsfilter0_0x55b0b0a3a2d0</title>
<path fill="#aaffaa" stroke="black" d="M553,-66C553,-66 702,-66 702,-66 708,-66 714,-72 714,-78 714,-78 714,-150 714,-150 714,-156 708,-162 702,-162 702,-162 553,-162 553,-162 547,-162 541,-156 541,-150 541,-150 541,-78 541,-78 541,-72 547,-66 553,-66"/>
<text text-anchor="middle" x="627.5" y="-151.6" font-family="Bitstream Vera Sans" font-size="8.00">GstCapsFilter</text>
<text text-anchor="middle" x="627.5" y="-142.6" font-family="Bitstream Vera Sans" font-size="8.00">capsfilter0</text>
<text text-anchor="middle" x="627.5" y="-133.6" font-family="Bitstream Vera Sans" font-size="8.00">[&gt;]</text>
<text text-anchor="middle" x="627.5" y="-124.6" font-family="Bitstream Vera Sans" font-size="8.00">caps=audio/x&#45;raw, rate=(int)48000</text>
</g>
<g id="clust2" class="cluster">
<title>cluster_capsfilter0_0x55b0b0a3a2d0_sink</title>
</g>
<g id="clust3" class="cluster">
<title>cluster_capsfilter0_0x55b0b0a3a2d0_src</title>
</g>
<g id="clust4" class="cluster">
<title>cluster_tcpserversink0_0x55b0b0a2f710</title>
<path fill="#aaaaff" stroke="black" d="M2276,-66C2276,-66 2435,-66 2435,-66 2441,-66 2447,-72 2447,-78 2447,-78 2447,-177 2447,-177 2447,-183 2441,-189 2435,-189 2435,-189 2276,-189 2276,-189 2270,-189 2264,-183 2264,-177 2264,-177 2264,-78 2264,-78 2264,-72 2270,-66 2276,-66"/>
<text text-anchor="middle" x="2355.5" y="-178.6" font-family="Bitstream Vera Sans" font-size="8.00">GstTCPServerSink</text>
<text text-anchor="middle" x="2355.5" y="-169.6" font-family="Bitstream Vera Sans" font-size="8.00">tcpserversink0</text>
<text text-anchor="middle" x="2355.5" y="-160.6" font-family="Bitstream Vera Sans" font-size="8.00">[&gt;]</text>
<text text-anchor="middle" x="2355.5" y="-151.6" font-family="Bitstream Vera Sans" font-size="8.00">last&#45;sample=((GstSample*) 0x7f0d540c5250)</text>
<text text-anchor="middle" x="2355.5" y="-142.6" font-family="Bitstream Vera Sans" font-size="8.00">host=&quot;127.0.0.1&quot;</text>
<text text-anchor="middle" x="2355.5" y="-133.6" font-family="Bitstream Vera Sans" font-size="8.00">port=5678</text>
<text text-anchor="middle" x="2355.5" y="-124.6" font-family="Bitstream Vera Sans" font-size="8.00">current&#45;port=5678</text>
</g>
<g id="clust5" class="cluster">
<title>cluster_tcpserversink0_0x55b0b0a2f710_sink</title>
</g>
<g id="clust6" class="cluster">
<title>cluster_rtpstreampay0_0x55b0b0a15120</title>
<path fill="#aaffaa" stroke="black" d="M1840,-66C1840,-66 1989,-66 1989,-66 1995,-66 2001,-72 2001,-78 2001,-78 2001,-141 2001,-141 2001,-147 1995,-153 1989,-153 1989,-153 1840,-153 1840,-153 1834,-153 1828,-147 1828,-141 1828,-141 1828,-78 1828,-78 1828,-72 1834,-66 1840,-66"/>
<text text-anchor="middle" x="1914.5" y="-142.6" font-family="Bitstream Vera Sans" font-size="8.00">GstRtpStreamPay</text>
<text text-anchor="middle" x="1914.5" y="-133.6" font-family="Bitstream Vera Sans" font-size="8.00">rtpstreampay0</text>
<text text-anchor="middle" x="1914.5" y="-124.6" font-family="Bitstream Vera Sans" font-size="8.00">[&gt;]</text>
</g>
<g id="clust7" class="cluster">
<title>cluster_rtpstreampay0_0x55b0b0a15120_sink</title>
</g>
<g id="clust8" class="cluster">
<title>cluster_rtpstreampay0_0x55b0b0a15120_src</title>
</g>
<g id="clust9" class="cluster">
<title>cluster_rtpvorbispay0_0x55b0b0a24110</title>
<path fill="#aaffaa" stroke="black" d="M1404,-66C1404,-66 1553,-66 1553,-66 1559,-66 1565,-72 1565,-78 1565,-78 1565,-168 1565,-168 1565,-174 1559,-180 1553,-180 1553,-180 1404,-180 1404,-180 1398,-180 1392,-174 1392,-168 1392,-168 1392,-78 1392,-78 1392,-72 1398,-66 1404,-66"/>
<text text-anchor="middle" x="1478.5" y="-169.6" font-family="Bitstream Vera Sans" font-size="8.00">GstRtpVorbisPay</text>
<text text-anchor="middle" x="1478.5" y="-160.6" font-family="Bitstream Vera Sans" font-size="8.00">rtpvorbispay0</text>
<text text-anchor="middle" x="1478.5" y="-151.6" font-family="Bitstream Vera Sans" font-size="8.00">[&gt;]</text>
<text text-anchor="middle" x="1478.5" y="-142.6" font-family="Bitstream Vera Sans" font-size="8.00">timestamp=2802864863</text>
<text text-anchor="middle" x="1478.5" y="-133.6" font-family="Bitstream Vera Sans" font-size="8.00">seqnum=28081</text>
<text text-anchor="middle" x="1478.5" y="-124.6" font-family="Bitstream Vera Sans" font-size="8.00">config&#45;interval=1</text>
</g>
<g id="clust10" class="cluster">
<title>cluster_rtpvorbispay0_0x55b0b0a24110_sink</title>
</g>
<g id="clust11" class="cluster">
<title>cluster_rtpvorbispay0_0x55b0b0a24110_src</title>
</g>
<g id="clust12" class="cluster">
<title>cluster_vorbisenc0_0x55b0b0a13800</title>
<path fill="#aaffaa" stroke="black" d="M953,-66C953,-66 1117,-66 1117,-66 1123,-66 1129,-72 1129,-78 1129,-78 1129,-168 1129,-168 1129,-174 1123,-180 1117,-180 1117,-180 953,-180 953,-180 947,-180 941,-174 941,-168 941,-168 941,-78 941,-78 941,-72 947,-66 953,-66"/>
<text text-anchor="middle" x="1035" y="-169.6" font-family="Bitstream Vera Sans" font-size="8.00">GstVorbisEnc</text>
<text text-anchor="middle" x="1035" y="-160.6" font-family="Bitstream Vera Sans" font-size="8.00">vorbisenc0</text>
<text text-anchor="middle" x="1035" y="-151.6" font-family="Bitstream Vera Sans" font-size="8.00">[&gt;]</text>
<text text-anchor="middle" x="1035" y="-142.6" font-family="Bitstream Vera Sans" font-size="8.00">perfect&#45;timestamp=TRUE</text>
<text text-anchor="middle" x="1035" y="-133.6" font-family="Bitstream Vera Sans" font-size="8.00">mark&#45;granule=TRUE</text>
<text text-anchor="middle" x="1035" y="-124.6" font-family="Bitstream Vera Sans" font-size="8.00">last&#45;message=&quot;encoding at quality level 0.30&quot;</text>
</g>
<g id="clust13" class="cluster">
<title>cluster_vorbisenc0_0x55b0b0a13800_sink</title>
</g>
<g id="clust14" class="cluster">
<title>cluster_vorbisenc0_0x55b0b0a13800_src</title>
</g>
<g id="clust15" class="cluster">
<title>cluster_alsasrc0_0x55b0b0a08ef0</title>
<path fill="#ffaaaa" stroke="black" d="M71,-66C71,-66 244,-66 244,-66 250,-66 256,-72 256,-78 256,-78 256,-177 256,-177 256,-183 250,-189 244,-189 244,-189 71,-189 71,-189 65,-189 59,-183 59,-177 59,-177 59,-78 59,-78 59,-72 65,-66 71,-66"/>
<text text-anchor="middle" x="157.5" y="-178.6" font-family="Bitstream Vera Sans" font-size="8.00">GstAlsaSrc</text>
<text text-anchor="middle" x="157.5" y="-169.6" font-family="Bitstream Vera Sans" font-size="8.00">alsasrc0</text>
<text text-anchor="middle" x="157.5" y="-160.6" font-family="Bitstream Vera Sans" font-size="8.00">[&gt;]</text>
<text text-anchor="middle" x="157.5" y="-151.6" font-family="Bitstream Vera Sans" font-size="8.00">blocksize=0</text>
<text text-anchor="middle" x="157.5" y="-142.6" font-family="Bitstream Vera Sans" font-size="8.00">actual&#45;buffer&#45;time=200000</text>
<text text-anchor="middle" x="157.5" y="-133.6" font-family="Bitstream Vera Sans" font-size="8.00">actual&#45;latency&#45;time=10000</text>
<text text-anchor="middle" x="157.5" y="-124.6" font-family="Bitstream Vera Sans" font-size="8.00">card&#45;name=&quot;ThinkPad Hybrid USB&#45;C with USB&#45;&quot;</text>
</g>
<g id="clust16" class="cluster">
<title>cluster_alsasrc0_0x55b0b0a08ef0_src</title>
</g>
<!-- legend -->
<g id="node1" class="node">
<title>legend</title>
<polygon fill="lightgrey" stroke="black" points="314,-58 0,-58 0,0 314,0 314,-58"/>
<text text-anchor="start" x="4" y="-46.8" font-family="sans" font-size="9.00">Legend</text>
<text text-anchor="start" x="4" y="-36.8" font-family="sans" font-size="9.00">Element&#45;States: [~] void&#45;pending, [0] null, [&#45;] ready, [=] paused, [&gt;] playing</text>
<text text-anchor="start" x="4" y="-26.8" font-family="sans" font-size="9.00">Pad&#45;Activation: [&#45;] none, [&gt;] push, [&lt;] pull</text>
<text text-anchor="start" x="4" y="-16.8" font-family="sans" font-size="9.00">Pad&#45;Flags: [b]locked, [f]lushing, [b]locking, [E]OS; upper&#45;case is set</text>
<text text-anchor="start" x="4" y="-6.8" font-family="sans" font-size="9.00">Pad&#45;Task: [T] has started task, [t] has paused task</text>
</g>
<!-- capsfilter0_0x55b0b0a3a2d0_sink_0x55b0b0a0b340 -->
<g id="node2" class="node">
<title>capsfilter0_0x55b0b0a3a2d0_sink_0x55b0b0a0b340</title>
<polygon fill="#aaaaff" stroke="black" points="611,-102 557,-102 557,-82 611,-82 611,-102"/>
<text text-anchor="middle" x="584" y="-94.8" font-family="sans" font-size="9.00">sink</text>
<text text-anchor="middle" x="584" y="-84.8" font-family="sans" font-size="9.00">[&gt;][bfb]</text>
</g>
<!-- capsfilter0_0x55b0b0a3a2d0_src_0x55b0b0a0b590 -->
<g id="node3" class="node">
<title>capsfilter0_0x55b0b0a3a2d0_src_0x55b0b0a0b590</title>
<polygon fill="#ffaaaa" stroke="black" points="698,-102 644,-102 644,-82 698,-82 698,-102"/>
<text text-anchor="middle" x="671" y="-94.8" font-family="sans" font-size="9.00">src</text>
<text text-anchor="middle" x="671" y="-84.8" font-family="sans" font-size="9.00">[&gt;][bfb]</text>
</g>
<!-- capsfilter0_0x55b0b0a3a2d0_sink_0x55b0b0a0b340&#45;&gt;capsfilter0_0x55b0b0a3a2d0_src_0x55b0b0a0b590 -->
<!-- vorbisenc0_0x55b0b0a13800_sink_0x55b0b0a0a310 -->
<g id="node4" class="node">
<title>vorbisenc0_0x55b0b0a13800_sink_0x55b0b0a0a310</title>
<polygon fill="#aaaaff" stroke="black" points="1018,-102 964,-102 964,-82 1018,-82 1018,-102"/>
<text text-anchor="middle" x="991" y="-94.8" font-family="sans" font-size="9.00">sink</text>
<text text-anchor="middle" x="991" y="-84.8" font-family="sans" font-size="9.00">[&gt;][bfb]</text>
</g>
<!-- capsfilter0_0x55b0b0a3a2d0_src_0x55b0b0a0b590&#45;&gt;vorbisenc0_0x55b0b0a13800_sink_0x55b0b0a0a310 -->
<g id="edge2" class="edge">
<title>capsfilter0_0x55b0b0a3a2d0_src_0x55b0b0a0b590&#45;&gt;vorbisenc0_0x55b0b0a13800_sink_0x55b0b0a0a310</title>
<path fill="none" stroke="black" d="M698.02,-92C754.51,-92 888.48,-92 953.44,-92"/>
<polygon fill="black" stroke="black" points="953.62,-95.5 963.62,-92 953.62,-88.5 953.62,-95.5"/>
<text text-anchor="start" x="722" y="-144.8" font-family="monospace" font-size="9.00">audio/x&#45;raw</text>
<text text-anchor="start" x="722" y="-134.8" font-family="monospace" font-size="9.00"> &#160;&#160;&#160;&#160;&#160;&#160;&#160;&#160;&#160;&#160;&#160;&#160;&#160;format: F32LE</text>
<text text-anchor="start" x="722" y="-124.8" font-family="monospace" font-size="9.00"> &#160;&#160;&#160;&#160;&#160;&#160;&#160;&#160;&#160;&#160;&#160;&#160;&#160;layout: interleaved</text>
<text text-anchor="start" x="722" y="-114.8" font-family="monospace" font-size="9.00"> &#160;&#160;&#160;&#160;&#160;&#160;&#160;&#160;&#160;&#160;&#160;&#160;&#160;&#160;&#160;rate: 48000</text>
<text text-anchor="start" x="722" y="-104.8" font-family="monospace" font-size="9.00"> &#160;&#160;&#160;&#160;&#160;&#160;&#160;&#160;&#160;&#160;&#160;channels: 2</text>
<text text-anchor="start" x="722" y="-94.8" font-family="monospace" font-size="9.00"> &#160;&#160;&#160;&#160;&#160;&#160;&#160;channel&#45;mask: 0x0000000000000003</text>
</g>
<!-- vorbisenc0_0x55b0b0a13800_src_0x55b0b0a0a560 -->
<g id="node10" class="node">
<title>vorbisenc0_0x55b0b0a13800_src_0x55b0b0a0a560</title>
<polygon fill="#ffaaaa" stroke="black" points="1105,-102 1051,-102 1051,-82 1105,-82 1105,-102"/>
<text text-anchor="middle" x="1078" y="-94.8" font-family="sans" font-size="9.00">src</text>
<text text-anchor="middle" x="1078" y="-84.8" font-family="sans" font-size="9.00">[&gt;][bfb]</text>
</g>
<!-- vorbisenc0_0x55b0b0a13800_sink_0x55b0b0a0a310&#45;&gt;vorbisenc0_0x55b0b0a13800_src_0x55b0b0a0a560 -->
<!-- tcpserversink0_0x55b0b0a2f710_sink_0x55b0b0a0b0f0 -->
<g id="node5" class="node">
<title>tcpserversink0_0x55b0b0a2f710_sink_0x55b0b0a0b0f0</title>
<polygon fill="#aaaaff" stroke="black" points="2382,-102 2328,-102 2328,-82 2382,-82 2382,-102"/>
<text text-anchor="middle" x="2355" y="-94.8" font-family="sans" font-size="9.00">sink</text>
<text text-anchor="middle" x="2355" y="-84.8" font-family="sans" font-size="9.00">[&gt;][bfb]</text>
</g>
<!-- rtpstreampay0_0x55b0b0a15120_sink_0x55b0b0a0ac50 -->
<g id="node6" class="node">
<title>rtpstreampay0_0x55b0b0a15120_sink_0x55b0b0a0ac50</title>
<polygon fill="#aaaaff" stroke="black" points="1898,-102 1844,-102 1844,-82 1898,-82 1898,-102"/>
<text text-anchor="middle" x="1871" y="-94.8" font-family="sans" font-size="9.00">sink</text>
<text text-anchor="middle" x="1871" y="-84.8" font-family="sans" font-size="9.00">[&gt;][bfb]</text>
</g>
<!-- rtpstreampay0_0x55b0b0a15120_src_0x55b0b0a0aea0 -->
<g id="node7" class="node">
<title>rtpstreampay0_0x55b0b0a15120_src_0x55b0b0a0aea0</title>
<polygon fill="#ffaaaa" stroke="black" points="1985,-102 1931,-102 1931,-82 1985,-82 1985,-102"/>
<text text-anchor="middle" x="1958" y="-94.8" font-family="sans" font-size="9.00">src</text>
<text text-anchor="middle" x="1958" y="-84.8" font-family="sans" font-size="9.00">[&gt;][bfb]</text>
</g>
<!-- rtpstreampay0_0x55b0b0a15120_sink_0x55b0b0a0ac50&#45;&gt;rtpstreampay0_0x55b0b0a15120_src_0x55b0b0a0aea0 -->
<!-- rtpstreampay0_0x55b0b0a15120_src_0x55b0b0a0aea0&#45;&gt;tcpserversink0_0x55b0b0a2f710_sink_0x55b0b0a0b0f0 -->
<g id="edge4" class="edge">
<title>rtpstreampay0_0x55b0b0a15120_src_0x55b0b0a0aea0&#45;&gt;tcpserversink0_0x55b0b0a2f710_sink_0x55b0b0a0b0f0</title>
<path fill="none" stroke="black" d="M1985.22,-92C2053.77,-92 2238.41,-92 2317.37,-92"/>
<polygon fill="black" stroke="black" points="2317.79,-95.5 2327.79,-92 2317.79,-88.5 2317.79,-95.5"/>
<text text-anchor="start" x="2009" y="-184.8" font-family="monospace" font-size="9.00">application/x&#45;rtp&#45;stream</text>
<text text-anchor="start" x="2009" y="-174.8" font-family="monospace" font-size="9.00"> &#160;&#160;&#160;&#160;&#160;&#160;&#160;&#160;&#160;&#160;&#160;&#160;&#160;&#160;media: audio</text>
<text text-anchor="start" x="2009" y="-164.8" font-family="monospace" font-size="9.00"> &#160;&#160;&#160;&#160;&#160;&#160;&#160;&#160;&#160;clock&#45;rate: 48000</text>
<text text-anchor="start" x="2009" y="-154.8" font-family="monospace" font-size="9.00"> &#160;&#160;&#160;&#160;&#160;&#160;encoding&#45;name: VORBIS</text>
<text text-anchor="start" x="2009" y="-144.8" font-family="monospace" font-size="9.00"> &#160;&#160;&#160;&#160;encoding&#45;params: 2</text>
<text text-anchor="start" x="2009" y="-134.8" font-family="monospace" font-size="9.00"> &#160;&#160;&#160;&#160;&#160;&#160;configuration: AAAAAd3FLQ9aAh5EAXZvcm...</text>
<text text-anchor="start" x="2009" y="-124.8" font-family="monospace" font-size="9.00"> &#160;&#160;&#160;&#160;&#160;&#160;&#160;&#160;&#160;&#160;&#160;&#160;payload: 96</text>
<text text-anchor="start" x="2009" y="-114.8" font-family="monospace" font-size="9.00"> &#160;&#160;&#160;&#160;&#160;&#160;seqnum&#45;offset: 28081</text>
<text text-anchor="start" x="2009" y="-104.8" font-family="monospace" font-size="9.00"> &#160;&#160;&#160;timestamp&#45;offset: 2802864863</text>
<text text-anchor="start" x="2009" y="-94.8" font-family="monospace" font-size="9.00"> &#160;&#160;&#160;&#160;&#160;&#160;&#160;&#160;&#160;&#160;&#160;&#160;&#160;&#160;&#160;ssrc: 2041041966</text>
</g>
<!-- rtpvorbispay0_0x55b0b0a24110_sink_0x55b0b0a0aa00 -->
<g id="node8" class="node">
<title>rtpvorbispay0_0x55b0b0a24110_sink_0x55b0b0a0aa00</title>
<polygon fill="#aaaaff" stroke="black" points="1462,-102 1408,-102 1408,-82 1462,-82 1462,-102"/>
<text text-anchor="middle" x="1435" y="-94.8" font-family="sans" font-size="9.00">sink</text>
<text text-anchor="middle" x="1435" y="-84.8" font-family="sans" font-size="9.00">[&gt;][bfb]</text>
</g>
<!-- rtpvorbispay0_0x55b0b0a24110_src_0x55b0b0a0a7b0 -->
<g id="node9" class="node">
<title>rtpvorbispay0_0x55b0b0a24110_src_0x55b0b0a0a7b0</title>
<polygon fill="#ffaaaa" stroke="black" points="1549,-102 1495,-102 1495,-82 1549,-82 1549,-102"/>
<text text-anchor="middle" x="1522" y="-94.8" font-family="sans" font-size="9.00">src</text>
<text text-anchor="middle" x="1522" y="-84.8" font-family="sans" font-size="9.00">[&gt;][bfb]</text>
</g>
<!-- rtpvorbispay0_0x55b0b0a24110_sink_0x55b0b0a0aa00&#45;&gt;rtpvorbispay0_0x55b0b0a24110_src_0x55b0b0a0a7b0 -->
<!-- rtpvorbispay0_0x55b0b0a24110_src_0x55b0b0a0a7b0&#45;&gt;rtpstreampay0_0x55b0b0a15120_sink_0x55b0b0a0ac50 -->
<g id="edge6" class="edge">
<title>rtpvorbispay0_0x55b0b0a24110_src_0x55b0b0a0a7b0&#45;&gt;rtpstreampay0_0x55b0b0a15120_sink_0x55b0b0a0ac50</title>
<path fill="none" stroke="black" d="M1549.08,-92C1610.25,-92 1763.06,-92 1833.45,-92"/>
<polygon fill="black" stroke="black" points="1833.62,-95.5 1843.62,-92 1833.62,-88.5 1833.62,-95.5"/>
<text text-anchor="start" x="1573" y="-184.8" font-family="monospace" font-size="9.00">application/x&#45;rtp</text>
<text text-anchor="start" x="1573" y="-174.8" font-family="monospace" font-size="9.00"> &#160;&#160;&#160;&#160;&#160;&#160;&#160;&#160;&#160;&#160;&#160;&#160;&#160;&#160;media: audio</text>
<text text-anchor="start" x="1573" y="-164.8" font-family="monospace" font-size="9.00"> &#160;&#160;&#160;&#160;&#160;&#160;&#160;&#160;&#160;clock&#45;rate: 48000</text>
<text text-anchor="start" x="1573" y="-154.8" font-family="monospace" font-size="9.00"> &#160;&#160;&#160;&#160;&#160;&#160;encoding&#45;name: VORBIS</text>
<text text-anchor="start" x="1573" y="-144.8" font-family="monospace" font-size="9.00"> &#160;&#160;&#160;&#160;encoding&#45;params: 2</text>
<text text-anchor="start" x="1573" y="-134.8" font-family="monospace" font-size="9.00"> &#160;&#160;&#160;&#160;&#160;&#160;configuration: AAAAAd3FLQ9aAh5EAXZvcm...</text>
<text text-anchor="start" x="1573" y="-124.8" font-family="monospace" font-size="9.00"> &#160;&#160;&#160;&#160;&#160;&#160;&#160;&#160;&#160;&#160;&#160;&#160;payload: 96</text>
<text text-anchor="start" x="1573" y="-114.8" font-family="monospace" font-size="9.00"> &#160;&#160;&#160;&#160;&#160;&#160;seqnum&#45;offset: 28081</text>
<text text-anchor="start" x="1573" y="-104.8" font-family="monospace" font-size="9.00"> &#160;&#160;&#160;timestamp&#45;offset: 2802864863</text>
<text text-anchor="start" x="1573" y="-94.8" font-family="monospace" font-size="9.00"> &#160;&#160;&#160;&#160;&#160;&#160;&#160;&#160;&#160;&#160;&#160;&#160;&#160;&#160;&#160;ssrc: 2041041966</text>
</g>
<!-- vorbisenc0_0x55b0b0a13800_src_0x55b0b0a0a560&#45;&gt;rtpvorbispay0_0x55b0b0a24110_sink_0x55b0b0a0aa00 -->
<g id="edge8" class="edge">
<title>vorbisenc0_0x55b0b0a13800_src_0x55b0b0a0a560&#45;&gt;rtpvorbispay0_0x55b0b0a24110_sink_0x55b0b0a0aa00</title>
<path fill="none" stroke="black" d="M1105.1,-92C1167.55,-92 1325.68,-92 1397.5,-92"/>
<polygon fill="black" stroke="black" points="1397.86,-95.5 1407.86,-92 1397.86,-88.5 1397.86,-95.5"/>
<text text-anchor="start" x="1137" y="-124.8" font-family="monospace" font-size="9.00">audio/x&#45;vorbis</text>
<text text-anchor="start" x="1137" y="-114.8" font-family="monospace" font-size="9.00"> &#160;&#160;&#160;&#160;&#160;&#160;&#160;&#160;&#160;&#160;&#160;&#160;&#160;&#160;&#160;rate: 48000</text>
<text text-anchor="start" x="1137" y="-104.8" font-family="monospace" font-size="9.00"> &#160;&#160;&#160;&#160;&#160;&#160;&#160;&#160;&#160;&#160;&#160;channels: 2</text>
<text text-anchor="start" x="1137" y="-94.8" font-family="monospace" font-size="9.00"> &#160;&#160;&#160;&#160;&#160;&#160;&#160;streamheader: &lt; (buffer)01766f7262... &gt;</text>
</g>
<!-- alsasrc0_0x55b0b0a08ef0_src_0x55b0b0a0a0c0 -->
<g id="node11" class="node">
<title>alsasrc0_0x55b0b0a08ef0_src_0x55b0b0a0a0c0</title>
<polygon fill="#ffaaaa" stroke="black" points="184,-102 130,-102 130,-82 184,-82 184,-102"/>
<text text-anchor="middle" x="157" y="-94.8" font-family="sans" font-size="9.00">src</text>
<text text-anchor="middle" x="157" y="-84.8" font-family="sans" font-size="9.00">[&gt;][bfb][T]</text>
</g>
<!-- alsasrc0_0x55b0b0a08ef0_src_0x55b0b0a0a0c0&#45;&gt;capsfilter0_0x55b0b0a3a2d0_sink_0x55b0b0a0b340 -->
<g id="edge9" class="edge">
<title>alsasrc0_0x55b0b0a08ef0_src_0x55b0b0a0a0c0&#45;&gt;capsfilter0_0x55b0b0a3a2d0_sink_0x55b0b0a0b340</title>
<path fill="none" stroke="black" d="M184.26,-92C257.33,-92 463.1,-92 546.85,-92"/>
<polygon fill="black" stroke="black" points="546.91,-95.5 556.91,-92 546.91,-88.5 546.91,-95.5"/>
<text text-anchor="start" x="322" y="-144.8" font-family="monospace" font-size="9.00">audio/x&#45;raw</text>
<text text-anchor="start" x="322" y="-134.8" font-family="monospace" font-size="9.00"> &#160;&#160;&#160;&#160;&#160;&#160;&#160;&#160;&#160;&#160;&#160;&#160;&#160;format: F32LE</text>
<text text-anchor="start" x="322" y="-124.8" font-family="monospace" font-size="9.00"> &#160;&#160;&#160;&#160;&#160;&#160;&#160;&#160;&#160;&#160;&#160;&#160;&#160;layout: interleaved</text>
<text text-anchor="start" x="322" y="-114.8" font-family="monospace" font-size="9.00"> &#160;&#160;&#160;&#160;&#160;&#160;&#160;&#160;&#160;&#160;&#160;&#160;&#160;&#160;&#160;rate: 48000</text>
<text text-anchor="start" x="322" y="-104.8" font-family="monospace" font-size="9.00"> &#160;&#160;&#160;&#160;&#160;&#160;&#160;&#160;&#160;&#160;&#160;channels: 2</text>
<text text-anchor="start" x="322" y="-94.8" font-family="monospace" font-size="9.00"> &#160;&#160;&#160;&#160;&#160;&#160;&#160;channel&#45;mask: 0x0000000000000003</text>
</g>
</g>
</svg>
