<?xml version="1.0" encoding="UTF-8" standalone="no"?>
<!DOCTYPE svg PUBLIC "-//W3C//DTD SVG 1.1//EN"
 "http://www.w3.org/Graphics/SVG/1.1/DTD/svg11.dtd">
<!-- Generated by graphviz version 5.0.0 (0)
 -->
<!-- Title: pipeline Pages: 1 -->
<svg width="4027pt" height="308pt"
 viewBox="0.00 0.00 4027.00 308.00" xmlns="http://www.w3.org/2000/svg" xmlns:xlink="http://www.w3.org/1999/xlink">
<g id="graph0" class="graph" transform="scale(1 1) rotate(0) translate(4 304)">
<title>pipeline</title>
<polygon fill="white" stroke="transparent" points="-4,4 -4,-304 4023,-304 4023,4 -4,4"/>
<text text-anchor="middle" x="2009.5" y="-288" font-family="sans" font-size="10.00">&lt;GstPipeline&gt;</text>
<text text-anchor="middle" x="2009.5" y="-277" font-family="sans" font-size="10.00">pipeline0</text>
<text text-anchor="middle" x="2009.5" y="-266" font-family="sans" font-size="10.00">[&gt;]</text>
<g id="clust1" class="cluster">
<title>cluster_capsfilter0_0x5637d8d06330</title>
<path fill="#aaffaa" stroke="black" d="M358,-69C358,-69 683,-69 683,-69 689,-69 695,-75 695,-81 695,-81 695,-153 695,-153 695,-159 689,-165 683,-165 683,-165 358,-165 358,-165 352,-165 346,-159 346,-153 346,-153 346,-81 346,-81 346,-75 352,-69 358,-69"/>
<text text-anchor="middle" x="520.5" y="-154.6" font-family="Bitstream Vera Sans" font-size="8.00">GstCapsFilter</text>
<text text-anchor="middle" x="520.5" y="-145.6" font-family="Bitstream Vera Sans" font-size="8.00">capsfilter0</text>
<text text-anchor="middle" x="520.5" y="-136.6" font-family="Bitstream Vera Sans" font-size="8.00">[&gt;]</text>
<text text-anchor="middle" x="520.5" y="-127.6" font-family="Bitstream Vera Sans" font-size="8.00">caps=application/x&#45;rtp&#45;stream, media=(string)audio, clock&#45;rate=(int)48000, encoding&#45;n…</text>
</g>
<g id="clust2" class="cluster">
<title>cluster_capsfilter0_0x5637d8d06330_sink</title>
</g>
<g id="clust3" class="cluster">
<title>cluster_capsfilter0_0x5637d8d06330_src</title>
</g>
<g id="clust4" class="cluster">
<title>cluster_autoaudiosink0_0x5637d8d00030</title>
<path fill="#ffffff" stroke="black" d="M3407,-68C3407,-68 4007,-68 4007,-68 4013,-68 4019,-74 4019,-80 4019,-80 4019,-239 4019,-239 4019,-245 4013,-251 4007,-251 4007,-251 3407,-251 3407,-251 3401,-251 3395,-245 3395,-239 3395,-239 3395,-80 3395,-80 3395,-74 3401,-68 3407,-68"/>
<text text-anchor="middle" x="3707" y="-240.6" font-family="Bitstream Vera Sans" font-size="8.00">GstAutoAudioSink</text>
<text text-anchor="middle" x="3707" y="-231.6" font-family="Bitstream Vera Sans" font-size="8.00">autoaudiosink0</text>
<text text-anchor="middle" x="3707" y="-222.6" font-family="Bitstream Vera Sans" font-size="8.00">[&gt;]</text>
<text text-anchor="middle" x="3707" y="-213.6" font-family="Bitstream Vera Sans" font-size="8.00">filter&#45;caps=audio/x&#45;raw</text>
</g>
<g id="clust5" class="cluster">
<title>cluster_autoaudiosink0_0x5637d8d00030_sink</title>
</g>
<g id="clust6" class="cluster">
<title>cluster_autoaudiosink0_actual_sink_pulse_0x5637d8d158e0</title>
<path fill="#aaaaff" stroke="black" d="M3720,-76C3720,-76 3999,-76 3999,-76 4005,-76 4011,-82 4011,-88 4011,-88 4011,-187 4011,-187 4011,-193 4005,-199 3999,-199 3999,-199 3720,-199 3720,-199 3714,-199 3708,-193 3708,-187 3708,-187 3708,-88 3708,-88 3708,-82 3714,-76 3720,-76"/>
<text text-anchor="middle" x="3859.5" y="-188.6" font-family="Bitstream Vera Sans" font-size="8.00">GstPulseSink</text>
<text text-anchor="middle" x="3859.5" y="-179.6" font-family="Bitstream Vera Sans" font-size="8.00">autoaudiosink0&#45;actual&#45;sink&#45;pulse</text>
<text text-anchor="middle" x="3859.5" y="-170.6" font-family="Bitstream Vera Sans" font-size="8.00">[&gt;]</text>
<text text-anchor="middle" x="3859.5" y="-161.6" font-family="Bitstream Vera Sans" font-size="8.00">enable&#45;last&#45;sample=FALSE</text>
<text text-anchor="middle" x="3859.5" y="-152.6" font-family="Bitstream Vera Sans" font-size="8.00">device=&quot;alsa_output.pci&#45;0000_06_00.6.HiFi__hw_Generic_1__sink&quot;</text>
<text text-anchor="middle" x="3859.5" y="-143.6" font-family="Bitstream Vera Sans" font-size="8.00">current&#45;device=&quot;alsa_output.pci&#45;0000_06_00.6.HiFi__hw_Generic_1__sink&quot;</text>
<text text-anchor="middle" x="3859.5" y="-134.6" font-family="Bitstream Vera Sans" font-size="8.00">device&#45;name=&quot;Family 17h/19h HD Audio Controller Speaker + Headphones&quot;</text>
</g>
<g id="clust7" class="cluster">
<title>cluster_autoaudiosink0_actual_sink_pulse_0x5637d8d158e0_sink</title>
</g>
<g id="clust8" class="cluster">
<title>cluster_audioresample0_0x5637d8cdd600</title>
<path fill="#aaffaa" stroke="black" d="M3007,-68C3007,-68 3156,-68 3156,-68 3162,-68 3168,-74 3168,-80 3168,-80 3168,-143 3168,-143 3168,-149 3162,-155 3156,-155 3156,-155 3007,-155 3007,-155 3001,-155 2995,-149 2995,-143 2995,-143 2995,-80 2995,-80 2995,-74 3001,-68 3007,-68"/>
<text text-anchor="middle" x="3081.5" y="-144.6" font-family="Bitstream Vera Sans" font-size="8.00">GstAudioResample</text>
<text text-anchor="middle" x="3081.5" y="-135.6" font-family="Bitstream Vera Sans" font-size="8.00">audioresample0</text>
<text text-anchor="middle" x="3081.5" y="-126.6" font-family="Bitstream Vera Sans" font-size="8.00">[&gt;]</text>
</g>
<g id="clust9" class="cluster">
<title>cluster_audioresample0_0x5637d8cdd600_sink</title>
</g>
<g id="clust10" class="cluster">
<title>cluster_audioresample0_0x5637d8cdd600_src</title>
</g>
<g id="clust11" class="cluster">
<title>cluster_audioconvert0_0x5637d8cf8440</title>
<path fill="#aaffaa" stroke="black" d="M2607,-68C2607,-68 2756,-68 2756,-68 2762,-68 2768,-74 2768,-80 2768,-80 2768,-143 2768,-143 2768,-149 2762,-155 2756,-155 2756,-155 2607,-155 2607,-155 2601,-155 2595,-149 2595,-143 2595,-143 2595,-80 2595,-80 2595,-74 2601,-68 2607,-68"/>
<text text-anchor="middle" x="2681.5" y="-144.6" font-family="Bitstream Vera Sans" font-size="8.00">GstAudioConvert</text>
<text text-anchor="middle" x="2681.5" y="-135.6" font-family="Bitstream Vera Sans" font-size="8.00">audioconvert0</text>
<text text-anchor="middle" x="2681.5" y="-126.6" font-family="Bitstream Vera Sans" font-size="8.00">[&gt;]</text>
</g>
<g id="clust12" class="cluster">
<title>cluster_audioconvert0_0x5637d8cf8440_sink</title>
</g>
<g id="clust13" class="cluster">
<title>cluster_audioconvert0_0x5637d8cf8440_src</title>
</g>
<g id="clust14" class="cluster">
<title>cluster_decodebin0_0x5637d8ce4360</title>
<path fill="#ffffff" stroke="black" d="M1471,-8C1471,-8 2356,-8 2356,-8 2362,-8 2368,-14 2368,-20 2368,-20 2368,-162 2368,-162 2368,-168 2362,-174 2356,-174 2356,-174 1471,-174 1471,-174 1465,-174 1459,-168 1459,-162 1459,-162 1459,-20 1459,-20 1459,-14 1465,-8 1471,-8"/>
<text text-anchor="middle" x="1913.5" y="-163.6" font-family="Bitstream Vera Sans" font-size="8.00">GstDecodeBin</text>
<text text-anchor="middle" x="1913.5" y="-154.6" font-family="Bitstream Vera Sans" font-size="8.00">decodebin0</text>
<text text-anchor="middle" x="1913.5" y="-145.6" font-family="Bitstream Vera Sans" font-size="8.00">[&gt;]</text>
<text text-anchor="middle" x="1913.5" y="-136.6" font-family="Bitstream Vera Sans" font-size="8.00">caps=video/x&#45;raw(ANY); audio/x&#45;raw(ANY); text/x&#45;raw(ANY); subpicture/x&#45;dvd; subpictur…</text>
</g>
<g id="clust15" class="cluster">
<title>cluster_decodebin0_0x5637d8ce4360_sink</title>
</g>
<g id="clust16" class="cluster">
<title>cluster_decodebin0_0x5637d8ce4360_src</title>
</g>
<g id="clust17" class="cluster">
<title>cluster_vorbisdec0_0x7fc84c07e270</title>
<path fill="#aaffaa" stroke="black" d="M1902,-20C1902,-20 2051,-20 2051,-20 2057,-20 2063,-26 2063,-32 2063,-32 2063,-95 2063,-95 2063,-101 2057,-107 2051,-107 2051,-107 1902,-107 1902,-107 1896,-107 1890,-101 1890,-95 1890,-95 1890,-32 1890,-32 1890,-26 1896,-20 1902,-20"/>
<text text-anchor="middle" x="1976.5" y="-96.6" font-family="Bitstream Vera Sans" font-size="8.00">GstVorbisDec</text>
<text text-anchor="middle" x="1976.5" y="-87.6" font-family="Bitstream Vera Sans" font-size="8.00">vorbisdec0</text>
<text text-anchor="middle" x="1976.5" y="-78.6" font-family="Bitstream Vera Sans" font-size="8.00">[&gt;]</text>
</g>
<g id="clust18" class="cluster">
<title>cluster_vorbisdec0_0x7fc84c07e270_sink</title>
</g>
<g id="clust19" class="cluster">
<title>cluster_vorbisdec0_0x7fc84c07e270_src</title>
</g>
<g id="clust20" class="cluster">
<title>cluster_typefind_0x5637d8cee0a0</title>
<path fill="#aaffaa" stroke="black" d="M1639,-16C1639,-16 1788,-16 1788,-16 1794,-16 1800,-22 1800,-28 1800,-28 1800,-100 1800,-100 1800,-106 1794,-112 1788,-112 1788,-112 1639,-112 1639,-112 1633,-112 1627,-106 1627,-100 1627,-100 1627,-28 1627,-28 1627,-22 1633,-16 1639,-16"/>
<text text-anchor="middle" x="1713.5" y="-101.6" font-family="Bitstream Vera Sans" font-size="8.00">GstTypeFindElement</text>
<text text-anchor="middle" x="1713.5" y="-92.6" font-family="Bitstream Vera Sans" font-size="8.00">typefind</text>
<text text-anchor="middle" x="1713.5" y="-83.6" font-family="Bitstream Vera Sans" font-size="8.00">[&gt;]</text>
<text text-anchor="middle" x="1713.5" y="-74.6" font-family="Bitstream Vera Sans" font-size="8.00">caps=audio/x&#45;vorbis</text>
</g>
<g id="clust21" class="cluster">
<title>cluster_typefind_0x5637d8cee0a0_sink</title>
</g>
<g id="clust22" class="cluster">
<title>cluster_typefind_0x5637d8cee0a0_src</title>
</g>
<g id="clust23" class="cluster">
<title>cluster_rtpvorbisdepay0_0x5637d8ce4150</title>
<path fill="#aaffaa" stroke="black" d="M1208,-69C1208,-69 1357,-69 1357,-69 1363,-69 1369,-75 1369,-81 1369,-81 1369,-144 1369,-144 1369,-150 1363,-156 1357,-156 1357,-156 1208,-156 1208,-156 1202,-156 1196,-150 1196,-144 1196,-144 1196,-81 1196,-81 1196,-75 1202,-69 1208,-69"/>
<text text-anchor="middle" x="1282.5" y="-145.6" font-family="Bitstream Vera Sans" font-size="8.00">GstRtpVorbisDepay</text>
<text text-anchor="middle" x="1282.5" y="-136.6" font-family="Bitstream Vera Sans" font-size="8.00">rtpvorbisdepay0</text>
<text text-anchor="middle" x="1282.5" y="-127.6" font-family="Bitstream Vera Sans" font-size="8.00">[&gt;]</text>
</g>
<g id="clust24" class="cluster">
<title>cluster_rtpvorbisdepay0_0x5637d8ce4150_sink</title>
</g>
<g id="clust25" class="cluster">
<title>cluster_rtpvorbisdepay0_0x5637d8ce4150_src</title>
</g>
<g id="clust26" class="cluster">
<title>cluster_rtpstreamdepay0_0x5637d8cdd1f0</title>
<path fill="#aaffaa" stroke="black" d="M871,-69C871,-69 1020,-69 1020,-69 1026,-69 1032,-75 1032,-81 1032,-81 1032,-144 1032,-144 1032,-150 1026,-156 1020,-156 1020,-156 871,-156 871,-156 865,-156 859,-150 859,-144 859,-144 859,-81 859,-81 859,-75 865,-69 871,-69"/>
<text text-anchor="middle" x="945.5" y="-145.6" font-family="Bitstream Vera Sans" font-size="8.00">GstRtpStreamDepay</text>
<text text-anchor="middle" x="945.5" y="-136.6" font-family="Bitstream Vera Sans" font-size="8.00">rtpstreamdepay0</text>
<text text-anchor="middle" x="945.5" y="-127.6" font-family="Bitstream Vera Sans" font-size="8.00">[&gt;]</text>
</g>
<g id="clust27" class="cluster">
<title>cluster_rtpstreamdepay0_0x5637d8cdd1f0_sink</title>
</g>
<g id="clust28" class="cluster">
<title>cluster_rtpstreamdepay0_0x5637d8cdd1f0_src</title>
</g>
<g id="clust29" class="cluster">
<title>cluster_tcpclientsrc0_0x5637d8ccc130</title>
<path fill="#ffaaaa" stroke="black" d="M122,-69C122,-69 193,-69 193,-69 199,-69 205,-75 205,-81 205,-81 205,-171 205,-171 205,-177 199,-183 193,-183 193,-183 122,-183 122,-183 116,-183 110,-177 110,-171 110,-171 110,-81 110,-81 110,-75 116,-69 122,-69"/>
<text text-anchor="middle" x="157.5" y="-172.6" font-family="Bitstream Vera Sans" font-size="8.00">GstTCPClientSrc</text>
<text text-anchor="middle" x="157.5" y="-163.6" font-family="Bitstream Vera Sans" font-size="8.00">tcpclientsrc0</text>
<text text-anchor="middle" x="157.5" y="-154.6" font-family="Bitstream Vera Sans" font-size="8.00">[&gt;]</text>
<text text-anchor="middle" x="157.5" y="-145.6" font-family="Bitstream Vera Sans" font-size="8.00">do&#45;timestamp=TRUE</text>
<text text-anchor="middle" x="157.5" y="-136.6" font-family="Bitstream Vera Sans" font-size="8.00">host=&quot;127.0.0.1&quot;</text>
<text text-anchor="middle" x="157.5" y="-127.6" font-family="Bitstream Vera Sans" font-size="8.00">port=5678</text>
</g>
<g id="clust30" class="cluster">
<title>cluster_tcpclientsrc0_0x5637d8ccc130_src</title>
</g>
<!-- legend -->
<g id="node1" class="node">
<title>legend</title>
<polygon fill="lightgrey" stroke="black" points="314,-61 0,-61 0,-3 314,-3 314,-61"/>
<text text-anchor="start" x="4" y="-49.8" font-family="sans" font-size="9.00">Legend</text>
<text text-anchor="start" x="4" y="-39.8" font-family="sans" font-size="9.00">Element&#45;States: [~] void&#45;pending, [0] null, [&#45;] ready, [=] paused, [&gt;] playing</text>
<text text-anchor="start" x="4" y="-29.8" font-family="sans" font-size="9.00">Pad&#45;Activation: [&#45;] none, [&gt;] push, [&lt;] pull</text>
<text text-anchor="start" x="4" y="-19.8" font-family="sans" font-size="9.00">Pad&#45;Flags: [b]locked, [f]lushing, [b]locking, [E]OS; upper&#45;case is set</text>
<text text-anchor="start" x="4" y="-9.8" font-family="sans" font-size="9.00">Pad&#45;Task: [T] has started task, [t] has paused task</text>
</g>
<!-- capsfilter0_0x5637d8d06330_sink_0x5637d8ccfc90 -->
<g id="node2" class="node">
<title>capsfilter0_0x5637d8d06330_sink_0x5637d8ccfc90</title>
<polygon fill="#aaaaff" stroke="black" points="504,-105 450,-105 450,-85 504,-85 504,-105"/>
<text text-anchor="middle" x="477" y="-97.8" font-family="sans" font-size="9.00">sink</text>
<text text-anchor="middle" x="477" y="-87.8" font-family="sans" font-size="9.00">[&gt;][bfb]</text>
</g>
<!-- capsfilter0_0x5637d8d06330_src_0x5637d8d08150 -->
<g id="node3" class="node">
<title>capsfilter0_0x5637d8d06330_src_0x5637d8d08150</title>
<polygon fill="#ffaaaa" stroke="black" points="591,-105 537,-105 537,-85 591,-85 591,-105"/>
<text text-anchor="middle" x="564" y="-97.8" font-family="sans" font-size="9.00">src</text>
<text text-anchor="middle" x="564" y="-87.8" font-family="sans" font-size="9.00">[&gt;][bfb]</text>
</g>
<!-- capsfilter0_0x5637d8d06330_sink_0x5637d8ccfc90&#45;&gt;capsfilter0_0x5637d8d06330_src_0x5637d8d08150 -->
<!-- rtpstreamdepay0_0x5637d8cdd1f0_sink_0x5637d8cce320 -->
<g id="node4" class="node">
<title>rtpstreamdepay0_0x5637d8cdd1f0_sink_0x5637d8cce320</title>
<polygon fill="#aaaaff" stroke="black" points="929,-105 875,-105 875,-85 929,-85 929,-105"/>
<text text-anchor="middle" x="902" y="-97.8" font-family="sans" font-size="9.00">sink</text>
<text text-anchor="middle" x="902" y="-87.8" font-family="sans" font-size="9.00">[&gt;][bfb]</text>
</g>
<!-- capsfilter0_0x5637d8d06330_src_0x5637d8d08150&#45;&gt;rtpstreamdepay0_0x5637d8cdd1f0_sink_0x5637d8cce320 -->
<g id="edge2" class="edge">
<title>capsfilter0_0x5637d8d06330_src_0x5637d8d08150&#45;&gt;rtpstreamdepay0_0x5637d8cdd1f0_sink_0x5637d8cce320</title>
<path fill="none" stroke="black" d="M591.09,-95C650.51,-95 796.06,-95 864.42,-95"/>
<polygon fill="black" stroke="black" points="864.7,-98.5 874.7,-95 864.7,-91.5 864.7,-98.5"/>
<text text-anchor="start" x="703" y="-127.8" font-family="monospace" font-size="9.00">application/x&#45;rtp&#45;stream</text>
<text text-anchor="start" x="703" y="-117.8" font-family="monospace" font-size="9.00"> &#160;&#160;&#160;&#160;&#160;&#160;&#160;&#160;&#160;&#160;&#160;&#160;&#160;&#160;media: audio</text>
<text text-anchor="start" x="703" y="-107.8" font-family="monospace" font-size="9.00"> &#160;&#160;&#160;&#160;&#160;&#160;&#160;&#160;&#160;clock&#45;rate: 48000</text>
<text text-anchor="start" x="703" y="-97.8" font-family="monospace" font-size="9.00"> &#160;&#160;&#160;&#160;&#160;&#160;encoding&#45;name: VORBIS</text>
</g>
<!-- rtpstreamdepay0_0x5637d8cdd1f0_src_0x5637d8cce570 -->
<g id="node22" class="node">
<title>rtpstreamdepay0_0x5637d8cdd1f0_src_0x5637d8cce570</title>
<polygon fill="#ffaaaa" stroke="black" points="1016,-105 962,-105 962,-85 1016,-85 1016,-105"/>
<text text-anchor="middle" x="989" y="-97.8" font-family="sans" font-size="9.00">src</text>
<text text-anchor="middle" x="989" y="-87.8" font-family="sans" font-size="9.00">[&gt;][bfb]</text>
</g>
<!-- rtpstreamdepay0_0x5637d8cdd1f0_sink_0x5637d8cce320&#45;&gt;rtpstreamdepay0_0x5637d8cdd1f0_src_0x5637d8cce570 -->
<!-- _proxypad1_0x5637d8cf4360 -->
<g id="node5" class="node">
<title>_proxypad1_0x5637d8cf4360</title>
<polygon fill="#ddddff" stroke="black" points="3465,-131 3411,-131 3411,-111 3465,-111 3465,-131"/>
<text text-anchor="middle" x="3438" y="-123.8" font-family="sans" font-size="9.00">proxypad1</text>
<text text-anchor="middle" x="3438" y="-113.8" font-family="sans" font-size="9.00">[&gt;][bfb]</text>
</g>
<!-- autoaudiosink0_actual_sink_pulse_0x5637d8d158e0_sink_0x5637d8d083a0 -->
<g id="node7" class="node">
<title>autoaudiosink0_actual_sink_pulse_0x5637d8d158e0_sink_0x5637d8d083a0</title>
<polygon fill="#aaaaff" stroke="black" points="3886,-112 3832,-112 3832,-92 3886,-92 3886,-112"/>
<text text-anchor="middle" x="3859" y="-104.8" font-family="sans" font-size="9.00">sink</text>
<text text-anchor="middle" x="3859" y="-94.8" font-family="sans" font-size="9.00">[&gt;][bfb]</text>
</g>
<!-- _proxypad1_0x5637d8cf4360&#45;&gt;autoaudiosink0_actual_sink_pulse_0x5637d8d158e0_sink_0x5637d8d083a0 -->
<g id="edge4" class="edge">
<title>_proxypad1_0x5637d8cf4360&#45;&gt;autoaudiosink0_actual_sink_pulse_0x5637d8d158e0_sink_0x5637d8d083a0</title>
<path fill="none" stroke="black" d="M3465.21,-119.81C3537.3,-116.54 3738.66,-107.41 3821.6,-103.65"/>
<polygon fill="black" stroke="black" points="3821.97,-107.14 3831.8,-103.19 3821.65,-100.14 3821.97,-107.14"/>
<text text-anchor="start" x="3481" y="-171.8" font-family="monospace" font-size="9.00">audio/x&#45;raw</text>
<text text-anchor="start" x="3481" y="-161.8" font-family="monospace" font-size="9.00"> &#160;&#160;&#160;&#160;&#160;&#160;&#160;&#160;&#160;&#160;&#160;&#160;&#160;format: F32LE</text>
<text text-anchor="start" x="3481" y="-151.8" font-family="monospace" font-size="9.00"> &#160;&#160;&#160;&#160;&#160;&#160;&#160;&#160;&#160;&#160;&#160;&#160;&#160;layout: interleaved</text>
<text text-anchor="start" x="3481" y="-141.8" font-family="monospace" font-size="9.00"> &#160;&#160;&#160;&#160;&#160;&#160;&#160;&#160;&#160;&#160;&#160;&#160;&#160;&#160;&#160;rate: 48000</text>
<text text-anchor="start" x="3481" y="-131.8" font-family="monospace" font-size="9.00"> &#160;&#160;&#160;&#160;&#160;&#160;&#160;&#160;&#160;&#160;&#160;channels: 2</text>
<text text-anchor="start" x="3481" y="-121.8" font-family="monospace" font-size="9.00"> &#160;&#160;&#160;&#160;&#160;&#160;&#160;channel&#45;mask: 0x0000000000000003</text>
</g>
<!-- autoaudiosink0_0x5637d8d00030_sink_0x5637d8cf22d0 -->
<g id="node6" class="node">
<title>autoaudiosink0_0x5637d8d00030_sink_0x5637d8cf22d0</title>
<polygon fill="#ddddff" stroke="black" points="3465,-104 3411,-104 3411,-84 3465,-84 3465,-104"/>
<text text-anchor="middle" x="3438" y="-96.8" font-family="sans" font-size="9.00">sink</text>
<text text-anchor="middle" x="3438" y="-86.8" font-family="sans" font-size="9.00">[&gt;][bfb]</text>
</g>
<!-- autoaudiosink0_0x5637d8d00030_sink_0x5637d8cf22d0&#45;&gt;_proxypad1_0x5637d8cf4360 -->
<g id="edge3" class="edge">
<title>autoaudiosink0_0x5637d8d00030_sink_0x5637d8cf22d0&#45;&gt;_proxypad1_0x5637d8cf4360</title>
<path fill="none" stroke="black" stroke-dasharray="5,2" d="M3438,-104.12C3438,-104.27 3438,-104.41 3438,-104.55"/>
<polygon fill="black" stroke="black" points="3434.5,-100.98 3438,-110.98 3441.5,-100.98 3434.5,-100.98"/>
</g>
<!-- audioresample0_0x5637d8cdd600_sink_0x5637d8ccf5a0 -->
<g id="node8" class="node">
<title>audioresample0_0x5637d8cdd600_sink_0x5637d8ccf5a0</title>
<polygon fill="#aaaaff" stroke="black" points="3065,-104 3011,-104 3011,-84 3065,-84 3065,-104"/>
<text text-anchor="middle" x="3038" y="-96.8" font-family="sans" font-size="9.00">sink</text>
<text text-anchor="middle" x="3038" y="-86.8" font-family="sans" font-size="9.00">[&gt;][bfb]</text>
</g>
<!-- audioresample0_0x5637d8cdd600_src_0x5637d8ccf7f0 -->
<g id="node9" class="node">
<title>audioresample0_0x5637d8cdd600_src_0x5637d8ccf7f0</title>
<polygon fill="#ffaaaa" stroke="black" points="3152,-104 3098,-104 3098,-84 3152,-84 3152,-104"/>
<text text-anchor="middle" x="3125" y="-96.8" font-family="sans" font-size="9.00">src</text>
<text text-anchor="middle" x="3125" y="-86.8" font-family="sans" font-size="9.00">[&gt;][bfb]</text>
</g>
<!-- audioresample0_0x5637d8cdd600_sink_0x5637d8ccf5a0&#45;&gt;audioresample0_0x5637d8cdd600_src_0x5637d8ccf7f0 -->
<!-- audioresample0_0x5637d8cdd600_src_0x5637d8ccf7f0&#45;&gt;autoaudiosink0_0x5637d8d00030_sink_0x5637d8cf22d0 -->
<g id="edge6" class="edge">
<title>audioresample0_0x5637d8cdd600_src_0x5637d8ccf7f0&#45;&gt;autoaudiosink0_0x5637d8d00030_sink_0x5637d8cf22d0</title>
<path fill="none" stroke="black" d="M3152.25,-94C3207.76,-94 3337.16,-94 3400.61,-94"/>
<polygon fill="black" stroke="black" points="3400.93,-97.5 3410.93,-94 3400.93,-90.5 3400.93,-97.5"/>
<text text-anchor="start" x="3176" y="-146.8" font-family="monospace" font-size="9.00">audio/x&#45;raw</text>
<text text-anchor="start" x="3176" y="-136.8" font-family="monospace" font-size="9.00"> &#160;&#160;&#160;&#160;&#160;&#160;&#160;&#160;&#160;&#160;&#160;&#160;&#160;format: F32LE</text>
<text text-anchor="start" x="3176" y="-126.8" font-family="monospace" font-size="9.00"> &#160;&#160;&#160;&#160;&#160;&#160;&#160;&#160;&#160;&#160;&#160;&#160;&#160;layout: interleaved</text>
<text text-anchor="start" x="3176" y="-116.8" font-family="monospace" font-size="9.00"> &#160;&#160;&#160;&#160;&#160;&#160;&#160;&#160;&#160;&#160;&#160;&#160;&#160;&#160;&#160;rate: 48000</text>
<text text-anchor="start" x="3176" y="-106.8" font-family="monospace" font-size="9.00"> &#160;&#160;&#160;&#160;&#160;&#160;&#160;&#160;&#160;&#160;&#160;channels: 2</text>
<text text-anchor="start" x="3176" y="-96.8" font-family="monospace" font-size="9.00"> &#160;&#160;&#160;&#160;&#160;&#160;&#160;channel&#45;mask: 0x0000000000000003</text>
</g>
<!-- audioconvert0_0x5637d8cf8440_sink_0x5637d8ccf100 -->
<g id="node10" class="node">
<title>audioconvert0_0x5637d8cf8440_sink_0x5637d8ccf100</title>
<polygon fill="#aaaaff" stroke="black" points="2665,-104 2611,-104 2611,-84 2665,-84 2665,-104"/>
<text text-anchor="middle" x="2638" y="-96.8" font-family="sans" font-size="9.00">sink</text>
<text text-anchor="middle" x="2638" y="-86.8" font-family="sans" font-size="9.00">[&gt;][bfb]</text>
</g>
<!-- audioconvert0_0x5637d8cf8440_src_0x5637d8ccf350 -->
<g id="node11" class="node">
<title>audioconvert0_0x5637d8cf8440_src_0x5637d8ccf350</title>
<polygon fill="#ffaaaa" stroke="black" points="2752,-104 2698,-104 2698,-84 2752,-84 2752,-104"/>
<text text-anchor="middle" x="2725" y="-96.8" font-family="sans" font-size="9.00">src</text>
<text text-anchor="middle" x="2725" y="-86.8" font-family="sans" font-size="9.00">[&gt;][bfb]</text>
</g>
<!-- audioconvert0_0x5637d8cf8440_sink_0x5637d8ccf100&#45;&gt;audioconvert0_0x5637d8cf8440_src_0x5637d8ccf350 -->
<!-- audioconvert0_0x5637d8cf8440_src_0x5637d8ccf350&#45;&gt;audioresample0_0x5637d8cdd600_sink_0x5637d8ccf5a0 -->
<g id="edge8" class="edge">
<title>audioconvert0_0x5637d8cf8440_src_0x5637d8ccf350&#45;&gt;audioresample0_0x5637d8cdd600_sink_0x5637d8ccf5a0</title>
<path fill="none" stroke="black" d="M2752.25,-94C2807.76,-94 2937.16,-94 3000.61,-94"/>
<polygon fill="black" stroke="black" points="3000.93,-97.5 3010.93,-94 3000.93,-90.5 3000.93,-97.5"/>
<text text-anchor="start" x="2776" y="-146.8" font-family="monospace" font-size="9.00">audio/x&#45;raw</text>
<text text-anchor="start" x="2776" y="-136.8" font-family="monospace" font-size="9.00"> &#160;&#160;&#160;&#160;&#160;&#160;&#160;&#160;&#160;&#160;&#160;&#160;&#160;format: F32LE</text>
<text text-anchor="start" x="2776" y="-126.8" font-family="monospace" font-size="9.00"> &#160;&#160;&#160;&#160;&#160;&#160;&#160;&#160;&#160;&#160;&#160;&#160;&#160;layout: interleaved</text>
<text text-anchor="start" x="2776" y="-116.8" font-family="monospace" font-size="9.00"> &#160;&#160;&#160;&#160;&#160;&#160;&#160;&#160;&#160;&#160;&#160;&#160;&#160;&#160;&#160;rate: 48000</text>
<text text-anchor="start" x="2776" y="-106.8" font-family="monospace" font-size="9.00"> &#160;&#160;&#160;&#160;&#160;&#160;&#160;&#160;&#160;&#160;&#160;channels: 2</text>
<text text-anchor="start" x="2776" y="-96.8" font-family="monospace" font-size="9.00"> &#160;&#160;&#160;&#160;&#160;&#160;&#160;channel&#45;mask: 0x0000000000000003</text>
</g>
<!-- _proxypad0_0x5637d8cf4100 -->
<g id="node12" class="node">
<title>_proxypad0_0x5637d8cf4100</title>
<polygon fill="#ddddff" stroke="black" points="1529,-78 1475,-78 1475,-58 1529,-58 1529,-78"/>
<text text-anchor="middle" x="1502" y="-70.8" font-family="sans" font-size="9.00">proxypad0</text>
<text text-anchor="middle" x="1502" y="-60.8" font-family="sans" font-size="9.00">[&gt;][bfb]</text>
</g>
<!-- typefind_0x5637d8cee0a0_sink_0x5637d8ccec60 -->
<g id="node18" class="node">
<title>typefind_0x5637d8cee0a0_sink_0x5637d8ccec60</title>
<polygon fill="#aaaaff" stroke="black" points="1697,-52 1643,-52 1643,-32 1697,-32 1697,-52"/>
<text text-anchor="middle" x="1670" y="-44.8" font-family="sans" font-size="9.00">sink</text>
<text text-anchor="middle" x="1670" y="-34.8" font-family="sans" font-size="9.00">[&gt;][bfb]</text>
</g>
<!-- _proxypad0_0x5637d8cf4100&#45;&gt;typefind_0x5637d8cee0a0_sink_0x5637d8ccec60 -->
<g id="edge15" class="edge">
<title>_proxypad0_0x5637d8cf4100&#45;&gt;typefind_0x5637d8cee0a0_sink_0x5637d8ccec60</title>
<path fill="none" stroke="black" d="M1529.3,-63.88C1557.23,-59.51 1601.56,-52.56 1632.78,-47.67"/>
<polygon fill="black" stroke="black" points="1633.48,-51.11 1642.82,-46.1 1632.4,-44.19 1633.48,-51.11"/>
<text text-anchor="start" x="1545" y="-63.8" font-family="monospace" font-size="9.00">audio/x&#45;vorbis</text>
</g>
<!-- decodebin0_0x5637d8ce4360_sink_0x5637d8cf2060 -->
<g id="node13" class="node">
<title>decodebin0_0x5637d8ce4360_sink_0x5637d8cf2060</title>
<polygon fill="#ddddff" stroke="black" points="1529,-105 1475,-105 1475,-85 1529,-85 1529,-105"/>
<text text-anchor="middle" x="1502" y="-97.8" font-family="sans" font-size="9.00">sink</text>
<text text-anchor="middle" x="1502" y="-87.8" font-family="sans" font-size="9.00">[&gt;][bfb]</text>
</g>
<!-- decodebin0_0x5637d8ce4360_sink_0x5637d8cf2060&#45;&gt;_proxypad0_0x5637d8cf4100 -->
<g id="edge9" class="edge">
<title>decodebin0_0x5637d8ce4360_sink_0x5637d8cf2060&#45;&gt;_proxypad0_0x5637d8cf4100</title>
<path fill="none" stroke="black" stroke-dasharray="5,2" d="M1502,-84.98C1502,-84.84 1502,-84.69 1502,-84.55"/>
<polygon fill="black" stroke="black" points="1505.5,-88.12 1502,-78.12 1498.5,-88.13 1505.5,-88.12"/>
</g>
<!-- decodebin0_0x5637d8ce4360_src_0_0x5637d8ce4b40 -->
<g id="node15" class="node">
<title>decodebin0_0x5637d8ce4360_src_0_0x5637d8ce4b40</title>
<polygon fill="#ffdddd" stroke="black" stroke-dasharray="1,5" points="2352,-104 2298,-104 2298,-84 2352,-84 2352,-104"/>
<text text-anchor="middle" x="2325" y="-96.8" font-family="sans" font-size="9.00">src_0</text>
<text text-anchor="middle" x="2325" y="-86.8" font-family="sans" font-size="9.00">[&gt;][bfb]</text>
</g>
<!-- decodebin0_0x5637d8ce4360_sink_0x5637d8cf2060&#45;&gt;decodebin0_0x5637d8ce4360_src_0_0x5637d8ce4b40 -->
<!-- _proxypad2_0x5637d8cf4a80 -->
<g id="node14" class="node">
<title>_proxypad2_0x5637d8cf4a80</title>
<polygon fill="#ffdddd" stroke="black" points="2352,-77 2298,-77 2298,-57 2352,-57 2352,-77"/>
<text text-anchor="middle" x="2325" y="-69.8" font-family="sans" font-size="9.00">proxypad2</text>
<text text-anchor="middle" x="2325" y="-59.8" font-family="sans" font-size="9.00">[&gt;][bfb]</text>
</g>
<!-- _proxypad2_0x5637d8cf4a80&#45;&gt;decodebin0_0x5637d8ce4360_src_0_0x5637d8ce4b40 -->
<g id="edge10" class="edge">
<title>_proxypad2_0x5637d8cf4a80&#45;&gt;decodebin0_0x5637d8ce4360_src_0_0x5637d8ce4b40</title>
<path fill="none" stroke="black" stroke-dasharray="5,2" d="M2325,-77.12C2325,-77.27 2325,-77.41 2325,-77.55"/>
<polygon fill="black" stroke="black" points="2321.5,-73.98 2325,-83.98 2328.5,-73.98 2321.5,-73.98"/>
</g>
<!-- decodebin0_0x5637d8ce4360_src_0_0x5637d8ce4b40&#45;&gt;audioconvert0_0x5637d8cf8440_sink_0x5637d8ccf100 -->
<g id="edge17" class="edge">
<title>decodebin0_0x5637d8ce4360_src_0_0x5637d8ce4b40&#45;&gt;audioconvert0_0x5637d8cf8440_sink_0x5637d8ccf100</title>
<path fill="none" stroke="black" d="M2352.25,-94C2407.76,-94 2537.16,-94 2600.61,-94"/>
<polygon fill="black" stroke="black" points="2600.93,-97.5 2610.93,-94 2600.93,-90.5 2600.93,-97.5"/>
<text text-anchor="start" x="2376" y="-146.8" font-family="monospace" font-size="9.00">audio/x&#45;raw</text>
<text text-anchor="start" x="2376" y="-136.8" font-family="monospace" font-size="9.00"> &#160;&#160;&#160;&#160;&#160;&#160;&#160;&#160;&#160;&#160;&#160;&#160;&#160;format: F32LE</text>
<text text-anchor="start" x="2376" y="-126.8" font-family="monospace" font-size="9.00"> &#160;&#160;&#160;&#160;&#160;&#160;&#160;&#160;&#160;&#160;&#160;&#160;&#160;layout: interleaved</text>
<text text-anchor="start" x="2376" y="-116.8" font-family="monospace" font-size="9.00"> &#160;&#160;&#160;&#160;&#160;&#160;&#160;&#160;&#160;&#160;&#160;&#160;&#160;&#160;&#160;rate: 48000</text>
<text text-anchor="start" x="2376" y="-106.8" font-family="monospace" font-size="9.00"> &#160;&#160;&#160;&#160;&#160;&#160;&#160;&#160;&#160;&#160;&#160;channels: 2</text>
<text text-anchor="start" x="2376" y="-96.8" font-family="monospace" font-size="9.00"> &#160;&#160;&#160;&#160;&#160;&#160;&#160;channel&#45;mask: 0x0000000000000003</text>
</g>
<!-- vorbisdec0_0x7fc84c07e270_sink_0x5637d8d08840 -->
<g id="node16" class="node">
<title>vorbisdec0_0x7fc84c07e270_sink_0x5637d8d08840</title>
<polygon fill="#aaaaff" stroke="black" points="1960,-56 1906,-56 1906,-36 1960,-36 1960,-56"/>
<text text-anchor="middle" x="1933" y="-48.8" font-family="sans" font-size="9.00">sink</text>
<text text-anchor="middle" x="1933" y="-38.8" font-family="sans" font-size="9.00">[&gt;][bfb]</text>
</g>
<!-- vorbisdec0_0x7fc84c07e270_src_0x5637d8d08a90 -->
<g id="node17" class="node">
<title>vorbisdec0_0x7fc84c07e270_src_0x5637d8d08a90</title>
<polygon fill="#ffaaaa" stroke="black" points="2047,-56 1993,-56 1993,-36 2047,-36 2047,-56"/>
<text text-anchor="middle" x="2020" y="-48.8" font-family="sans" font-size="9.00">src</text>
<text text-anchor="middle" x="2020" y="-38.8" font-family="sans" font-size="9.00">[&gt;][bfb]</text>
</g>
<!-- vorbisdec0_0x7fc84c07e270_sink_0x5637d8d08840&#45;&gt;vorbisdec0_0x7fc84c07e270_src_0x5637d8d08a90 -->
<!-- vorbisdec0_0x7fc84c07e270_src_0x5637d8d08a90&#45;&gt;_proxypad2_0x5637d8cf4a80 -->
<g id="edge13" class="edge">
<title>vorbisdec0_0x7fc84c07e270_src_0x5637d8d08a90&#45;&gt;_proxypad2_0x5637d8cf4a80</title>
<path fill="none" stroke="black" d="M2047.03,-46.11C2094.1,-46.56 2196.41,-48.77 2282,-59 2283.93,-59.23 2285.91,-59.5 2287.91,-59.79"/>
<polygon fill="black" stroke="black" points="2287.44,-63.26 2297.87,-61.44 2288.58,-56.36 2287.44,-63.26"/>
<text text-anchor="start" x="2071" y="-111.8" font-family="monospace" font-size="9.00">audio/x&#45;raw</text>
<text text-anchor="start" x="2071" y="-101.8" font-family="monospace" font-size="9.00"> &#160;&#160;&#160;&#160;&#160;&#160;&#160;&#160;&#160;&#160;&#160;&#160;&#160;format: F32LE</text>
<text text-anchor="start" x="2071" y="-91.8" font-family="monospace" font-size="9.00"> &#160;&#160;&#160;&#160;&#160;&#160;&#160;&#160;&#160;&#160;&#160;&#160;&#160;layout: interleaved</text>
<text text-anchor="start" x="2071" y="-81.8" font-family="monospace" font-size="9.00"> &#160;&#160;&#160;&#160;&#160;&#160;&#160;&#160;&#160;&#160;&#160;&#160;&#160;&#160;&#160;rate: 48000</text>
<text text-anchor="start" x="2071" y="-71.8" font-family="monospace" font-size="9.00"> &#160;&#160;&#160;&#160;&#160;&#160;&#160;&#160;&#160;&#160;&#160;channels: 2</text>
<text text-anchor="start" x="2071" y="-61.8" font-family="monospace" font-size="9.00"> &#160;&#160;&#160;&#160;&#160;&#160;&#160;channel&#45;mask: 0x0000000000000003</text>
</g>
<!-- typefind_0x5637d8cee0a0_src_0x5637d8cceeb0 -->
<g id="node19" class="node">
<title>typefind_0x5637d8cee0a0_src_0x5637d8cceeb0</title>
<polygon fill="#ffaaaa" stroke="black" points="1784,-52 1730,-52 1730,-32 1784,-32 1784,-52"/>
<text text-anchor="middle" x="1757" y="-44.8" font-family="sans" font-size="9.00">src</text>
<text text-anchor="middle" x="1757" y="-34.8" font-family="sans" font-size="9.00">[&gt;][bfb]</text>
</g>
<!-- typefind_0x5637d8cee0a0_sink_0x5637d8ccec60&#45;&gt;typefind_0x5637d8cee0a0_src_0x5637d8cceeb0 -->
<!-- typefind_0x5637d8cee0a0_src_0x5637d8cceeb0&#45;&gt;vorbisdec0_0x7fc84c07e270_sink_0x5637d8d08840 -->
<g id="edge16" class="edge">
<title>typefind_0x5637d8cee0a0_src_0x5637d8cceeb0&#45;&gt;vorbisdec0_0x7fc84c07e270_sink_0x5637d8d08840</title>
<path fill="none" stroke="black" d="M1784.05,-42.6C1813.65,-43.28 1862.16,-44.39 1895.52,-45.16"/>
<polygon fill="black" stroke="black" points="1895.69,-48.67 1905.77,-45.4 1895.86,-41.67 1895.69,-48.67"/>
<text text-anchor="start" x="1808" y="-46.8" font-family="monospace" font-size="9.00">audio/x&#45;vorbis</text>
</g>
<!-- rtpvorbisdepay0_0x5637d8ce4150_sink_0x5637d8cce7c0 -->
<g id="node20" class="node">
<title>rtpvorbisdepay0_0x5637d8ce4150_sink_0x5637d8cce7c0</title>
<polygon fill="#aaaaff" stroke="black" points="1266,-105 1212,-105 1212,-85 1266,-85 1266,-105"/>
<text text-anchor="middle" x="1239" y="-97.8" font-family="sans" font-size="9.00">sink</text>
<text text-anchor="middle" x="1239" y="-87.8" font-family="sans" font-size="9.00">[&gt;][bfb]</text>
</g>
<!-- rtpvorbisdepay0_0x5637d8ce4150_src_0x5637d8ccea10 -->
<g id="node21" class="node">
<title>rtpvorbisdepay0_0x5637d8ce4150_src_0x5637d8ccea10</title>
<polygon fill="#ffaaaa" stroke="black" points="1353,-105 1299,-105 1299,-85 1353,-85 1353,-105"/>
<text text-anchor="middle" x="1326" y="-97.8" font-family="sans" font-size="9.00">src</text>
<text text-anchor="middle" x="1326" y="-87.8" font-family="sans" font-size="9.00">[&gt;][bfb]</text>
</g>
<!-- rtpvorbisdepay0_0x5637d8ce4150_sink_0x5637d8cce7c0&#45;&gt;rtpvorbisdepay0_0x5637d8ce4150_src_0x5637d8ccea10 -->
<!-- rtpvorbisdepay0_0x5637d8ce4150_src_0x5637d8ccea10&#45;&gt;decodebin0_0x5637d8ce4360_sink_0x5637d8cf2060 -->
<g id="edge19" class="edge">
<title>rtpvorbisdepay0_0x5637d8ce4150_src_0x5637d8ccea10&#45;&gt;decodebin0_0x5637d8ce4360_sink_0x5637d8cf2060</title>
<path fill="none" stroke="black" d="M1353.05,-95C1382.65,-95 1431.16,-95 1464.52,-95"/>
<polygon fill="black" stroke="black" points="1464.77,-98.5 1474.77,-95 1464.77,-91.5 1464.77,-98.5"/>
<text text-anchor="start" x="1377" y="-97.8" font-family="monospace" font-size="9.00">audio/x&#45;vorbis</text>
</g>
<!-- rtpstreamdepay0_0x5637d8cdd1f0_src_0x5637d8cce570&#45;&gt;rtpvorbisdepay0_0x5637d8ce4150_sink_0x5637d8cce7c0 -->
<g id="edge21" class="edge">
<title>rtpstreamdepay0_0x5637d8cdd1f0_src_0x5637d8cce570&#45;&gt;rtpvorbisdepay0_0x5637d8ce4150_sink_0x5637d8cce7c0</title>
<path fill="none" stroke="black" d="M1016.07,-95C1060.54,-95 1151.14,-95 1201.74,-95"/>
<polygon fill="black" stroke="black" points="1201.91,-98.5 1211.91,-95 1201.91,-91.5 1201.91,-98.5"/>
<text text-anchor="start" x="1040" y="-127.8" font-family="monospace" font-size="9.00">application/x&#45;rtp</text>
<text text-anchor="start" x="1040" y="-117.8" font-family="monospace" font-size="9.00"> &#160;&#160;&#160;&#160;&#160;&#160;&#160;&#160;&#160;&#160;&#160;&#160;&#160;&#160;media: audio</text>
<text text-anchor="start" x="1040" y="-107.8" font-family="monospace" font-size="9.00"> &#160;&#160;&#160;&#160;&#160;&#160;&#160;&#160;&#160;clock&#45;rate: 48000</text>
<text text-anchor="start" x="1040" y="-97.8" font-family="monospace" font-size="9.00"> &#160;&#160;&#160;&#160;&#160;&#160;encoding&#45;name: VORBIS</text>
</g>
<!-- tcpclientsrc0_0x5637d8ccc130_src_0x5637d8cce0d0 -->
<g id="node23" class="node">
<title>tcpclientsrc0_0x5637d8ccc130_src_0x5637d8cce0d0</title>
<polygon fill="#ffaaaa" stroke="black" points="184,-105 130,-105 130,-85 184,-85 184,-105"/>
<text text-anchor="middle" x="157" y="-97.8" font-family="sans" font-size="9.00">src</text>
<text text-anchor="middle" x="157" y="-87.8" font-family="sans" font-size="9.00">[&gt;][bfb][T]</text>
</g>
<!-- tcpclientsrc0_0x5637d8ccc130_src_0x5637d8cce0d0&#45;&gt;capsfilter0_0x5637d8d06330_sink_0x5637d8ccfc90 -->
<g id="edge22" class="edge">
<title>tcpclientsrc0_0x5637d8ccc130_src_0x5637d8cce0d0&#45;&gt;capsfilter0_0x5637d8d06330_sink_0x5637d8ccfc90</title>
<path fill="none" stroke="black" d="M184.02,-95C240.51,-95 374.48,-95 439.44,-95"/>
<polygon fill="black" stroke="black" points="439.62,-98.5 449.62,-95 439.62,-91.5 439.62,-98.5"/>
<text text-anchor="middle" x="330" y="-97.8" font-family="monospace" font-size="9.00">ANY</text>
</g>
</g>
</svg>
