<?xml version="1.0" encoding="UTF-8" standalone="no"?>
<!DOCTYPE svg PUBLIC "-//W3C//DTD SVG 1.1//EN"
 "http://www.w3.org/Graphics/SVG/1.1/DTD/svg11.dtd">
<!-- Generated by graphviz version 5.0.0 (0)
 -->
<!-- Title: pipeline Pages: 1 -->
<svg width="2164pt" height="264pt"
 viewBox="0.00 0.00 2164.00 264.00" xmlns="http://www.w3.org/2000/svg" xmlns:xlink="http://www.w3.org/1999/xlink">
<g id="graph0" class="graph" transform="scale(1 1) rotate(0) translate(4 260)">
<title>pipeline</title>
<polygon fill="white" stroke="transparent" points="-4,4 -4,-260 2160,-260 2160,4 -4,4"/>
<text text-anchor="middle" x="1078" y="-244" font-family="sans" font-size="10.00">&lt;GstPipeline&gt;</text>
<text text-anchor="middle" x="1078" y="-233" font-family="sans" font-size="10.00">pipeline0</text>
<text text-anchor="middle" x="1078" y="-222" font-family="sans" font-size="10.00">[=] &#45;&gt; [0]</text>
<g id="clust1" class="cluster">
<title>cluster_capsfilter0_0x55a7a0038350</title>
<path fill="#aaffaa" stroke="black" d="M516,-66C516,-66 696,-66 696,-66 702,-66 708,-72 708,-78 708,-78 708,-150 708,-150 708,-156 702,-162 696,-162 696,-162 516,-162 516,-162 510,-162 504,-156 504,-150 504,-150 504,-78 504,-78 504,-72 510,-66 516,-66"/>
<text text-anchor="middle" x="606" y="-151.6" font-family="Bitstream Vera Sans" font-size="8.00">GstCapsFilter</text>
<text text-anchor="middle" x="606" y="-142.6" font-family="Bitstream Vera Sans" font-size="8.00">capsfilter0</text>
<text text-anchor="middle" x="606" y="-133.6" font-family="Bitstream Vera Sans" font-size="8.00">[=]</text>
<text text-anchor="middle" x="606" y="-124.6" font-family="Bitstream Vera Sans" font-size="8.00">caps=video/x&#45;raw, width=(int)640, height=(int)480</text>
</g>
<g id="clust2" class="cluster">
<title>cluster_capsfilter0_0x55a7a0038350_sink</title>
</g>
<g id="clust3" class="cluster">
<title>cluster_capsfilter0_0x55a7a0038350_src</title>
</g>
<g id="clust4" class="cluster">
<title>cluster_tcpserversink0_0x55a7a002e290</title>
<path fill="#aaaaff" stroke="black" d="M1989,-66C1989,-66 2144,-66 2144,-66 2150,-66 2156,-72 2156,-78 2156,-78 2156,-195 2156,-195 2156,-201 2150,-207 2144,-207 2144,-207 1989,-207 1989,-207 1983,-207 1977,-201 1977,-195 1977,-195 1977,-78 1977,-78 1977,-72 1983,-66 1989,-66"/>
<text text-anchor="middle" x="2066.5" y="-196.6" font-family="Bitstream Vera Sans" font-size="8.00">GstTCPServerSink</text>
<text text-anchor="middle" x="2066.5" y="-187.6" font-family="Bitstream Vera Sans" font-size="8.00">tcpserversink0</text>
<text text-anchor="middle" x="2066.5" y="-178.6" font-family="Bitstream Vera Sans" font-size="8.00">[&gt;] &#45;&gt; [=]</text>
<text text-anchor="middle" x="2066.5" y="-169.6" font-family="Bitstream Vera Sans" font-size="8.00">last&#45;sample=((GstSample*) 0x55a79fff3510)</text>
<text text-anchor="middle" x="2066.5" y="-160.6" font-family="Bitstream Vera Sans" font-size="8.00">buffers&#45;queued=1</text>
<text text-anchor="middle" x="2066.5" y="-151.6" font-family="Bitstream Vera Sans" font-size="8.00">bytes&#45;to&#45;serve=622401</text>
<text text-anchor="middle" x="2066.5" y="-142.6" font-family="Bitstream Vera Sans" font-size="8.00">host=&quot;127.0.0.1&quot;</text>
<text text-anchor="middle" x="2066.5" y="-133.6" font-family="Bitstream Vera Sans" font-size="8.00">port=5000</text>
<text text-anchor="middle" x="2066.5" y="-124.6" font-family="Bitstream Vera Sans" font-size="8.00">current&#45;port=5000</text>
</g>
<g id="clust5" class="cluster">
<title>cluster_tcpserversink0_0x55a7a002e290_sink</title>
</g>
<g id="clust6" class="cluster">
<title>cluster_rtpstreampay0_0x55a7a0026000</title>
<path fill="#aaffaa" stroke="black" d="M1631,-66C1631,-66 1780,-66 1780,-66 1786,-66 1792,-72 1792,-78 1792,-78 1792,-141 1792,-141 1792,-147 1786,-153 1780,-153 1780,-153 1631,-153 1631,-153 1625,-153 1619,-147 1619,-141 1619,-141 1619,-78 1619,-78 1619,-72 1625,-66 1631,-66"/>
<text text-anchor="middle" x="1705.5" y="-142.6" font-family="Bitstream Vera Sans" font-size="8.00">GstRtpStreamPay</text>
<text text-anchor="middle" x="1705.5" y="-133.6" font-family="Bitstream Vera Sans" font-size="8.00">rtpstreampay0</text>
<text text-anchor="middle" x="1705.5" y="-124.6" font-family="Bitstream Vera Sans" font-size="8.00">[=]</text>
</g>
<g id="clust7" class="cluster">
<title>cluster_rtpstreampay0_0x55a7a0026000_sink</title>
</g>
<g id="clust8" class="cluster">
<title>cluster_rtpstreampay0_0x55a7a0026000_src</title>
</g>
<g id="clust9" class="cluster">
<title>cluster_rtpjpegpay0_0x55a7a00220d0</title>
<path fill="#aaffaa" stroke="black" d="M1273,-66C1273,-66 1422,-66 1422,-66 1428,-66 1434,-72 1434,-78 1434,-78 1434,-177 1434,-177 1434,-183 1428,-189 1422,-189 1422,-189 1273,-189 1273,-189 1267,-189 1261,-183 1261,-177 1261,-177 1261,-78 1261,-78 1261,-72 1267,-66 1273,-66"/>
<text text-anchor="middle" x="1347.5" y="-178.6" font-family="Bitstream Vera Sans" font-size="8.00">GstRtpJPEGPay</text>
<text text-anchor="middle" x="1347.5" y="-169.6" font-family="Bitstream Vera Sans" font-size="8.00">rtpjpegpay0</text>
<text text-anchor="middle" x="1347.5" y="-160.6" font-family="Bitstream Vera Sans" font-size="8.00">[=]</text>
<text text-anchor="middle" x="1347.5" y="-151.6" font-family="Bitstream Vera Sans" font-size="8.00">pt=26</text>
<text text-anchor="middle" x="1347.5" y="-142.6" font-family="Bitstream Vera Sans" font-size="8.00">timestamp=3198037718</text>
<text text-anchor="middle" x="1347.5" y="-133.6" font-family="Bitstream Vera Sans" font-size="8.00">seqnum=31916</text>
<text text-anchor="middle" x="1347.5" y="-124.6" font-family="Bitstream Vera Sans" font-size="8.00">type=0</text>
</g>
<g id="clust10" class="cluster">
<title>cluster_rtpjpegpay0_0x55a7a00220d0_sink</title>
</g>
<g id="clust11" class="cluster">
<title>cluster_rtpjpegpay0_0x55a7a00220d0_src</title>
</g>
<g id="clust12" class="cluster">
<title>cluster_jpegenc0_0x55a7a0012a60</title>
<path fill="#aaffaa" stroke="black" d="M910,-66C910,-66 1059,-66 1059,-66 1065,-66 1071,-72 1071,-78 1071,-78 1071,-141 1071,-141 1071,-147 1065,-153 1059,-153 1059,-153 910,-153 910,-153 904,-153 898,-147 898,-141 898,-141 898,-78 898,-78 898,-72 904,-66 910,-66"/>
<text text-anchor="middle" x="984.5" y="-142.6" font-family="Bitstream Vera Sans" font-size="8.00">GstJpegEnc</text>
<text text-anchor="middle" x="984.5" y="-133.6" font-family="Bitstream Vera Sans" font-size="8.00">jpegenc0</text>
<text text-anchor="middle" x="984.5" y="-124.6" font-family="Bitstream Vera Sans" font-size="8.00">[=]</text>
</g>
<g id="clust13" class="cluster">
<title>cluster_jpegenc0_0x55a7a0012a60_sink</title>
</g>
<g id="clust14" class="cluster">
<title>cluster_jpegenc0_0x55a7a0012a60_src</title>
</g>
<g id="clust15" class="cluster">
<title>cluster_v4l2src0_0x55a7a000e100</title>
<path fill="#ffaaaa" stroke="black" d="M69,-66C69,-66 246,-66 246,-66 252,-66 258,-72 258,-78 258,-78 258,-195 258,-195 258,-201 252,-207 246,-207 246,-207 69,-207 69,-207 63,-207 57,-201 57,-195 57,-195 57,-78 57,-78 57,-72 63,-66 69,-66"/>
<text text-anchor="middle" x="157.5" y="-196.6" font-family="Bitstream Vera Sans" font-size="8.00">GstV4l2Src</text>
<text text-anchor="middle" x="157.5" y="-187.6" font-family="Bitstream Vera Sans" font-size="8.00">v4l2src0</text>
<text text-anchor="middle" x="157.5" y="-178.6" font-family="Bitstream Vera Sans" font-size="8.00">[=]</text>
<text text-anchor="middle" x="157.5" y="-169.6" font-family="Bitstream Vera Sans" font-size="8.00">device&#45;name=&quot;Integrated Camera: Integrated C&quot;</text>
<text text-anchor="middle" x="157.5" y="-160.6" font-family="Bitstream Vera Sans" font-size="8.00">device&#45;fd=8</text>
<text text-anchor="middle" x="157.5" y="-151.6" font-family="Bitstream Vera Sans" font-size="8.00">flags=capture</text>
<text text-anchor="middle" x="157.5" y="-142.6" font-family="Bitstream Vera Sans" font-size="8.00">brightness=128</text>
<text text-anchor="middle" x="157.5" y="-133.6" font-family="Bitstream Vera Sans" font-size="8.00">contrast=32</text>
<text text-anchor="middle" x="157.5" y="-124.6" font-family="Bitstream Vera Sans" font-size="8.00">saturation=64</text>
</g>
<g id="clust16" class="cluster">
<title>cluster_v4l2src0_0x55a7a000e100_src</title>
</g>
<!-- legend -->
<g id="node1" class="node">
<title>legend</title>
<polygon fill="lightgrey" stroke="black" points="314,-58 0,-58 0,0 314,0 314,-58"/>
<text text-anchor="start" x="4" y="-46.8" font-family="sans" font-size="9.00">Legend</text>
<text text-anchor="start" x="4" y="-36.8" font-family="sans" font-size="9.00">Element&#45;States: [~] void&#45;pending, [0] null, [&#45;] ready, [=] paused, [&gt;] playing</text>
<text text-anchor="start" x="4" y="-26.8" font-family="sans" font-size="9.00">Pad&#45;Activation: [&#45;] none, [&gt;] push, [&lt;] pull</text>
<text text-anchor="start" x="4" y="-16.8" font-family="sans" font-size="9.00">Pad&#45;Flags: [b]locked, [f]lushing, [b]locking, [E]OS; upper&#45;case is set</text>
<text text-anchor="start" x="4" y="-6.8" font-family="sans" font-size="9.00">Pad&#45;Task: [T] has started task, [t] has paused task</text>
</g>
<!-- capsfilter0_0x55a7a0038350_sink_0x55a7a00112f0 -->
<g id="node2" class="node">
<title>capsfilter0_0x55a7a0038350_sink_0x55a7a00112f0</title>
<polygon fill="#aaaaff" stroke="black" points="589,-102 535,-102 535,-82 589,-82 589,-102"/>
<text text-anchor="middle" x="562" y="-94.8" font-family="sans" font-size="9.00">sink</text>
<text text-anchor="middle" x="562" y="-84.8" font-family="sans" font-size="9.00">[&gt;][bfb]</text>
</g>
<!-- capsfilter0_0x55a7a0038350_src_0x55a7a0011540 -->
<g id="node3" class="node">
<title>capsfilter0_0x55a7a0038350_src_0x55a7a0011540</title>
<polygon fill="#ffaaaa" stroke="black" points="676,-102 622,-102 622,-82 676,-82 676,-102"/>
<text text-anchor="middle" x="649" y="-94.8" font-family="sans" font-size="9.00">src</text>
<text text-anchor="middle" x="649" y="-84.8" font-family="sans" font-size="9.00">[&gt;][bfb]</text>
</g>
<!-- capsfilter0_0x55a7a0038350_sink_0x55a7a00112f0&#45;&gt;capsfilter0_0x55a7a0038350_src_0x55a7a0011540 -->
<!-- jpegenc0_0x55a7a0012a60_sink_0x55a7a00102c0 -->
<g id="node4" class="node">
<title>jpegenc0_0x55a7a0012a60_sink_0x55a7a00102c0</title>
<polygon fill="#aaaaff" stroke="black" points="968,-102 914,-102 914,-82 968,-82 968,-102"/>
<text text-anchor="middle" x="941" y="-94.8" font-family="sans" font-size="9.00">sink</text>
<text text-anchor="middle" x="941" y="-84.8" font-family="sans" font-size="9.00">[&gt;][bfb]</text>
</g>
<!-- capsfilter0_0x55a7a0038350_src_0x55a7a0011540&#45;&gt;jpegenc0_0x55a7a0012a60_sink_0x55a7a00102c0 -->
<g id="edge2" class="edge">
<title>capsfilter0_0x55a7a0038350_src_0x55a7a0011540&#45;&gt;jpegenc0_0x55a7a0012a60_sink_0x55a7a00102c0</title>
<path fill="none" stroke="black" d="M676.25,-92C728.2,-92 844.24,-92 903.56,-92"/>
<polygon fill="black" stroke="black" points="903.6,-95.5 913.6,-92 903.6,-88.5 903.6,-95.5"/>
<text text-anchor="start" x="716" y="-164.8" font-family="monospace" font-size="9.00">video/x&#45;raw</text>
<text text-anchor="start" x="716" y="-154.8" font-family="monospace" font-size="9.00"> &#160;&#160;&#160;&#160;&#160;&#160;&#160;&#160;&#160;&#160;&#160;&#160;&#160;&#160;width: 640</text>
<text text-anchor="start" x="716" y="-144.8" font-family="monospace" font-size="9.00"> &#160;&#160;&#160;&#160;&#160;&#160;&#160;&#160;&#160;&#160;&#160;&#160;&#160;height: 480</text>
<text text-anchor="start" x="716" y="-134.8" font-family="monospace" font-size="9.00"> &#160;&#160;&#160;&#160;&#160;&#160;&#160;&#160;&#160;&#160;framerate: 30/1</text>
<text text-anchor="start" x="716" y="-124.8" font-family="monospace" font-size="9.00"> &#160;&#160;&#160;&#160;&#160;&#160;&#160;&#160;&#160;&#160;&#160;&#160;&#160;format: YUY2</text>
<text text-anchor="start" x="716" y="-114.8" font-family="monospace" font-size="9.00"> &#160;pixel&#45;aspect&#45;ratio: 1/1</text>
<text text-anchor="start" x="716" y="-104.8" font-family="monospace" font-size="9.00"> &#160;&#160;&#160;&#160;&#160;interlace&#45;mode: progressive</text>
<text text-anchor="start" x="716" y="-94.8" font-family="monospace" font-size="9.00"> &#160;&#160;&#160;&#160;&#160;&#160;&#160;&#160;colorimetry: 2:4:16:1</text>
</g>
<!-- jpegenc0_0x55a7a0012a60_src_0x55a7a0010510 -->
<g id="node10" class="node">
<title>jpegenc0_0x55a7a0012a60_src_0x55a7a0010510</title>
<polygon fill="#ffaaaa" stroke="black" points="1055,-102 1001,-102 1001,-82 1055,-82 1055,-102"/>
<text text-anchor="middle" x="1028" y="-94.8" font-family="sans" font-size="9.00">src</text>
<text text-anchor="middle" x="1028" y="-84.8" font-family="sans" font-size="9.00">[&gt;][bfb]</text>
</g>
<!-- jpegenc0_0x55a7a0012a60_sink_0x55a7a00102c0&#45;&gt;jpegenc0_0x55a7a0012a60_src_0x55a7a0010510 -->
<!-- tcpserversink0_0x55a7a002e290_sink_0x55a7a00110a0 -->
<g id="node5" class="node">
<title>tcpserversink0_0x55a7a002e290_sink_0x55a7a00110a0</title>
<polygon fill="#aaaaff" stroke="black" points="2093,-102 2039,-102 2039,-82 2093,-82 2093,-102"/>
<text text-anchor="middle" x="2066" y="-94.8" font-family="sans" font-size="9.00">sink</text>
<text text-anchor="middle" x="2066" y="-84.8" font-family="sans" font-size="9.00">[&gt;][bfb]</text>
</g>
<!-- rtpstreampay0_0x55a7a0026000_sink_0x55a7a0010c00 -->
<g id="node6" class="node">
<title>rtpstreampay0_0x55a7a0026000_sink_0x55a7a0010c00</title>
<polygon fill="#aaaaff" stroke="black" points="1689,-102 1635,-102 1635,-82 1689,-82 1689,-102"/>
<text text-anchor="middle" x="1662" y="-94.8" font-family="sans" font-size="9.00">sink</text>
<text text-anchor="middle" x="1662" y="-84.8" font-family="sans" font-size="9.00">[&gt;][bfb]</text>
</g>
<!-- rtpstreampay0_0x55a7a0026000_src_0x55a7a0010e50 -->
<g id="node7" class="node">
<title>rtpstreampay0_0x55a7a0026000_src_0x55a7a0010e50</title>
<polygon fill="#ffaaaa" stroke="black" points="1776,-102 1722,-102 1722,-82 1776,-82 1776,-102"/>
<text text-anchor="middle" x="1749" y="-94.8" font-family="sans" font-size="9.00">src</text>
<text text-anchor="middle" x="1749" y="-84.8" font-family="sans" font-size="9.00">[&gt;][bfb]</text>
</g>
<!-- rtpstreampay0_0x55a7a0026000_sink_0x55a7a0010c00&#45;&gt;rtpstreampay0_0x55a7a0026000_src_0x55a7a0010e50 -->
<!-- rtpstreampay0_0x55a7a0026000_src_0x55a7a0010e50&#45;&gt;tcpserversink0_0x55a7a002e290_sink_0x55a7a00110a0 -->
<g id="edge4" class="edge">
<title>rtpstreampay0_0x55a7a0026000_src_0x55a7a0010e50&#45;&gt;tcpserversink0_0x55a7a002e290_sink_0x55a7a00110a0</title>
<path fill="none" stroke="black" d="M1776.05,-92C1832.18,-92 1964.65,-92 2028.86,-92"/>
<polygon fill="black" stroke="black" points="2028.92,-95.5 2038.92,-92 2028.92,-88.5 2028.92,-95.5"/>
<text text-anchor="start" x="1800" y="-174.8" font-family="monospace" font-size="9.00">application/x&#45;rtp&#45;stream</text>
<text text-anchor="start" x="1800" y="-164.8" font-family="monospace" font-size="9.00"> &#160;&#160;&#160;&#160;&#160;&#160;&#160;&#160;&#160;&#160;&#160;&#160;&#160;&#160;media: video</text>
<text text-anchor="start" x="1800" y="-154.8" font-family="monospace" font-size="9.00"> &#160;&#160;&#160;&#160;&#160;&#160;&#160;&#160;&#160;clock&#45;rate: 90000</text>
<text text-anchor="start" x="1800" y="-144.8" font-family="monospace" font-size="9.00"> &#160;&#160;&#160;&#160;&#160;&#160;encoding&#45;name: JPEG</text>
<text text-anchor="start" x="1800" y="-134.8" font-family="monospace" font-size="9.00"> &#160;&#160;&#160;&#160;&#160;&#160;&#160;&#160;a&#45;framerate: 30.000000</text>
<text text-anchor="start" x="1800" y="-124.8" font-family="monospace" font-size="9.00"> &#160;&#160;&#160;&#160;&#160;&#160;&#160;&#160;&#160;&#160;&#160;&#160;payload: 26</text>
<text text-anchor="start" x="1800" y="-114.8" font-family="monospace" font-size="9.00"> &#160;&#160;&#160;&#160;&#160;&#160;&#160;&#160;&#160;&#160;&#160;&#160;&#160;&#160;&#160;ssrc: 4248454129</text>
<text text-anchor="start" x="1800" y="-104.8" font-family="monospace" font-size="9.00"> &#160;&#160;&#160;timestamp&#45;offset: 3197882929</text>
<text text-anchor="start" x="1800" y="-94.8" font-family="monospace" font-size="9.00"> &#160;&#160;&#160;&#160;&#160;&#160;seqnum&#45;offset: 31468</text>
</g>
<!-- rtpjpegpay0_0x55a7a00220d0_sink_0x55a7a00109b0 -->
<g id="node8" class="node">
<title>rtpjpegpay0_0x55a7a00220d0_sink_0x55a7a00109b0</title>
<polygon fill="#aaaaff" stroke="black" points="1331,-102 1277,-102 1277,-82 1331,-82 1331,-102"/>
<text text-anchor="middle" x="1304" y="-94.8" font-family="sans" font-size="9.00">sink</text>
<text text-anchor="middle" x="1304" y="-84.8" font-family="sans" font-size="9.00">[&gt;][bfb]</text>
</g>
<!-- rtpjpegpay0_0x55a7a00220d0_src_0x55a7a0010760 -->
<g id="node9" class="node">
<title>rtpjpegpay0_0x55a7a00220d0_src_0x55a7a0010760</title>
<polygon fill="#ffaaaa" stroke="black" points="1418,-102 1364,-102 1364,-82 1418,-82 1418,-102"/>
<text text-anchor="middle" x="1391" y="-94.8" font-family="sans" font-size="9.00">src</text>
<text text-anchor="middle" x="1391" y="-84.8" font-family="sans" font-size="9.00">[&gt;][bfb]</text>
</g>
<!-- rtpjpegpay0_0x55a7a00220d0_sink_0x55a7a00109b0&#45;&gt;rtpjpegpay0_0x55a7a00220d0_src_0x55a7a0010760 -->
<!-- rtpjpegpay0_0x55a7a00220d0_src_0x55a7a0010760&#45;&gt;rtpstreampay0_0x55a7a0026000_sink_0x55a7a0010c00 -->
<g id="edge6" class="edge">
<title>rtpjpegpay0_0x55a7a00220d0_src_0x55a7a0010760&#45;&gt;rtpstreampay0_0x55a7a0026000_sink_0x55a7a0010c00</title>
<path fill="none" stroke="black" d="M1418.28,-92C1466.6,-92 1569.59,-92 1624.6,-92"/>
<polygon fill="black" stroke="black" points="1624.61,-95.5 1634.61,-92 1624.61,-88.5 1624.61,-95.5"/>
<text text-anchor="start" x="1442" y="-174.8" font-family="monospace" font-size="9.00">application/x&#45;rtp</text>
<text text-anchor="start" x="1442" y="-164.8" font-family="monospace" font-size="9.00"> &#160;&#160;&#160;&#160;&#160;&#160;&#160;&#160;&#160;&#160;&#160;&#160;&#160;&#160;media: video</text>
<text text-anchor="start" x="1442" y="-154.8" font-family="monospace" font-size="9.00"> &#160;&#160;&#160;&#160;&#160;&#160;&#160;&#160;&#160;clock&#45;rate: 90000</text>
<text text-anchor="start" x="1442" y="-144.8" font-family="monospace" font-size="9.00"> &#160;&#160;&#160;&#160;&#160;&#160;encoding&#45;name: JPEG</text>
<text text-anchor="start" x="1442" y="-134.8" font-family="monospace" font-size="9.00"> &#160;&#160;&#160;&#160;&#160;&#160;&#160;&#160;a&#45;framerate: 30.000000</text>
<text text-anchor="start" x="1442" y="-124.8" font-family="monospace" font-size="9.00"> &#160;&#160;&#160;&#160;&#160;&#160;&#160;&#160;&#160;&#160;&#160;&#160;payload: 26</text>
<text text-anchor="start" x="1442" y="-114.8" font-family="monospace" font-size="9.00"> &#160;&#160;&#160;&#160;&#160;&#160;&#160;&#160;&#160;&#160;&#160;&#160;&#160;&#160;&#160;ssrc: 4248454129</text>
<text text-anchor="start" x="1442" y="-104.8" font-family="monospace" font-size="9.00"> &#160;&#160;&#160;timestamp&#45;offset: 3197882929</text>
<text text-anchor="start" x="1442" y="-94.8" font-family="monospace" font-size="9.00"> &#160;&#160;&#160;&#160;&#160;&#160;seqnum&#45;offset: 31468</text>
</g>
<!-- jpegenc0_0x55a7a0012a60_src_0x55a7a0010510&#45;&gt;rtpjpegpay0_0x55a7a00220d0_sink_0x55a7a00109b0 -->
<g id="edge8" class="edge">
<title>jpegenc0_0x55a7a0012a60_src_0x55a7a0010510&#45;&gt;rtpjpegpay0_0x55a7a00220d0_sink_0x55a7a00109b0</title>
<path fill="none" stroke="black" d="M1055.27,-92C1104.47,-92 1210.59,-92 1266.62,-92"/>
<polygon fill="black" stroke="black" points="1266.81,-95.5 1276.81,-92 1266.81,-88.5 1266.81,-95.5"/>
<text text-anchor="start" x="1079" y="-164.8" font-family="monospace" font-size="9.00">image/jpeg</text>
<text text-anchor="start" x="1079" y="-154.8" font-family="monospace" font-size="9.00"> &#160;&#160;&#160;&#160;&#160;&#160;&#160;&#160;&#160;sof&#45;marker: 0</text>
<text text-anchor="start" x="1079" y="-144.8" font-family="monospace" font-size="9.00"> &#160;&#160;&#160;&#160;&#160;&#160;&#160;&#160;&#160;&#160;&#160;&#160;&#160;&#160;width: 640</text>
<text text-anchor="start" x="1079" y="-134.8" font-family="monospace" font-size="9.00"> &#160;&#160;&#160;&#160;&#160;&#160;&#160;&#160;&#160;&#160;&#160;&#160;&#160;height: 480</text>
<text text-anchor="start" x="1079" y="-124.8" font-family="monospace" font-size="9.00"> &#160;pixel&#45;aspect&#45;ratio: 1/1</text>
<text text-anchor="start" x="1079" y="-114.8" font-family="monospace" font-size="9.00"> &#160;&#160;&#160;&#160;&#160;&#160;&#160;&#160;&#160;&#160;framerate: 30/1</text>
<text text-anchor="start" x="1079" y="-104.8" font-family="monospace" font-size="9.00"> &#160;&#160;&#160;&#160;&#160;interlace&#45;mode: progressive</text>
<text text-anchor="start" x="1079" y="-94.8" font-family="monospace" font-size="9.00"> &#160;&#160;&#160;&#160;&#160;&#160;&#160;&#160;colorimetry: 2:4:16:1</text>
</g>
<!-- v4l2src0_0x55a7a000e100_src_0x55a7a0010070 -->
<g id="node11" class="node">
<title>v4l2src0_0x55a7a000e100_src_0x55a7a0010070</title>
<polygon fill="#ffaaaa" stroke="black" points="184,-102 130,-102 130,-82 184,-82 184,-102"/>
<text text-anchor="middle" x="157" y="-94.8" font-family="sans" font-size="9.00">src</text>
<text text-anchor="middle" x="157" y="-84.8" font-family="sans" font-size="9.00">[&gt;][bfb][T]</text>
</g>
<!-- v4l2src0_0x55a7a000e100_src_0x55a7a0010070&#45;&gt;capsfilter0_0x55a7a0038350_sink_0x55a7a00112f0 -->
<g id="edge9" class="edge">
<title>v4l2src0_0x55a7a000e100_src_0x55a7a0010070&#45;&gt;capsfilter0_0x55a7a0038350_sink_0x55a7a00112f0</title>
<path fill="none" stroke="black" d="M184.13,-92C253.91,-92 444.71,-92 524.83,-92"/>
<polygon fill="black" stroke="black" points="524.93,-95.5 534.93,-92 524.93,-88.5 524.93,-95.5"/>
<text text-anchor="start" x="322" y="-164.8" font-family="monospace" font-size="9.00">video/x&#45;raw</text>
<text text-anchor="start" x="322" y="-154.8" font-family="monospace" font-size="9.00"> &#160;&#160;&#160;&#160;&#160;&#160;&#160;&#160;&#160;&#160;&#160;&#160;&#160;&#160;width: 640</text>
<text text-anchor="start" x="322" y="-144.8" font-family="monospace" font-size="9.00"> &#160;&#160;&#160;&#160;&#160;&#160;&#160;&#160;&#160;&#160;&#160;&#160;&#160;height: 480</text>
<text text-anchor="start" x="322" y="-134.8" font-family="monospace" font-size="9.00"> &#160;&#160;&#160;&#160;&#160;&#160;&#160;&#160;&#160;&#160;framerate: 30/1</text>
<text text-anchor="start" x="322" y="-124.8" font-family="monospace" font-size="9.00"> &#160;&#160;&#160;&#160;&#160;&#160;&#160;&#160;&#160;&#160;&#160;&#160;&#160;format: YUY2</text>
<text text-anchor="start" x="322" y="-114.8" font-family="monospace" font-size="9.00"> &#160;pixel&#45;aspect&#45;ratio: 1/1</text>
<text text-anchor="start" x="322" y="-104.8" font-family="monospace" font-size="9.00"> &#160;&#160;&#160;&#160;&#160;interlace&#45;mode: progressive</text>
<text text-anchor="start" x="322" y="-94.8" font-family="monospace" font-size="9.00"> &#160;&#160;&#160;&#160;&#160;&#160;&#160;&#160;colorimetry: 2:4:16:1</text>
</g>
</g>
</svg>
