<?xml version="1.0" encoding="UTF-8" standalone="no"?>
<!DOCTYPE svg PUBLIC "-//W3C//DTD SVG 1.1//EN"
 "http://www.w3.org/Graphics/SVG/1.1/DTD/svg11.dtd">
<!-- Generated by graphviz version 5.0.0 (0)
 -->
<!-- Title: pipeline Pages: 1 -->
<svg width="2389pt" height="351pt"
 viewBox="0.00 0.00 2389.00 351.00" xmlns="http://www.w3.org/2000/svg" xmlns:xlink="http://www.w3.org/1999/xlink">
<g id="graph0" class="graph" transform="scale(1 1) rotate(0) translate(4 347)">
<title>pipeline</title>
<polygon fill="white" stroke="transparent" points="-4,4 -4,-347 2385,-347 2385,4 -4,4"/>
<text text-anchor="middle" x="1190.5" y="-331" font-family="sans" font-size="10.00">&lt;GstPipeline&gt;</text>
<text text-anchor="middle" x="1190.5" y="-320" font-family="sans" font-size="10.00">pipeline0</text>
<text text-anchor="middle" x="1190.5" y="-309" font-family="sans" font-size="10.00">[&gt;]</text>
<g id="clust1" class="cluster">
<title>cluster_capsfilter0_0x5604a6650270</title>
<path fill="#aaffaa" stroke="black" d="M358,-66C358,-66 578,-66 578,-66 584,-66 590,-72 590,-78 590,-78 590,-150 590,-150 590,-156 584,-162 578,-162 578,-162 358,-162 358,-162 352,-162 346,-156 346,-150 346,-150 346,-78 346,-78 346,-72 352,-66 358,-66"/>
<text text-anchor="middle" x="468" y="-151.6" font-family="Bitstream Vera Sans" font-size="8.00">GstCapsFilter</text>
<text text-anchor="middle" x="468" y="-142.6" font-family="Bitstream Vera Sans" font-size="8.00">capsfilter0</text>
<text text-anchor="middle" x="468" y="-133.6" font-family="Bitstream Vera Sans" font-size="8.00">[&gt;]</text>
<text text-anchor="middle" x="468" y="-124.6" font-family="Bitstream Vera Sans" font-size="8.00">caps=application/x&#45;rtp&#45;stream, encoding&#45;name=(string)JPEG</text>
</g>
<g id="clust2" class="cluster">
<title>cluster_capsfilter0_0x5604a6650270_sink</title>
</g>
<g id="clust3" class="cluster">
<title>cluster_capsfilter0_0x5604a6650270_src</title>
</g>
<g id="clust4" class="cluster">
<title>cluster_autovideosink0_0x5604a663e030</title>
<path fill="#ffffff" stroke="black" d="M1853,-66C1853,-66 2369,-66 2369,-66 2375,-66 2381,-72 2381,-78 2381,-78 2381,-282 2381,-282 2381,-288 2375,-294 2369,-294 2369,-294 1853,-294 1853,-294 1847,-294 1841,-288 1841,-282 1841,-282 1841,-78 1841,-78 1841,-72 1847,-66 1853,-66"/>
<text text-anchor="middle" x="2111" y="-283.6" font-family="Bitstream Vera Sans" font-size="8.00">GstAutoVideoSink</text>
<text text-anchor="middle" x="2111" y="-274.6" font-family="Bitstream Vera Sans" font-size="8.00">autovideosink0</text>
<text text-anchor="middle" x="2111" y="-265.6" font-family="Bitstream Vera Sans" font-size="8.00">[&gt;]</text>
<text text-anchor="middle" x="2111" y="-256.6" font-family="Bitstream Vera Sans" font-size="8.00">filter&#45;caps=video/x&#45;raw</text>
</g>
<g id="clust5" class="cluster">
<title>cluster_autovideosink0_0x5604a663e030_sink</title>
</g>
<g id="clust6" class="cluster">
<title>cluster_autovideosink0_actual_sink_xvimage_0x5604a66554c0</title>
<path fill="#aaaaff" stroke="black" d="M2202,-74C2202,-74 2361,-74 2361,-74 2367,-74 2373,-80 2373,-86 2373,-86 2373,-230 2373,-230 2373,-236 2367,-242 2361,-242 2361,-242 2202,-242 2202,-242 2196,-242 2190,-236 2190,-230 2190,-230 2190,-86 2190,-86 2190,-80 2196,-74 2202,-74"/>
<text text-anchor="middle" x="2281.5" y="-231.6" font-family="Bitstream Vera Sans" font-size="8.00">GstXvImageSink</text>
<text text-anchor="middle" x="2281.5" y="-222.6" font-family="Bitstream Vera Sans" font-size="8.00">autovideosink0&#45;actual&#45;sink&#45;xvimage</text>
<text text-anchor="middle" x="2281.5" y="-213.6" font-family="Bitstream Vera Sans" font-size="8.00">[&gt;]</text>
<text text-anchor="middle" x="2281.5" y="-204.6" font-family="Bitstream Vera Sans" font-size="8.00">max&#45;lateness=5000000</text>
<text text-anchor="middle" x="2281.5" y="-195.6" font-family="Bitstream Vera Sans" font-size="8.00">qos=TRUE</text>
<text text-anchor="middle" x="2281.5" y="-186.6" font-family="Bitstream Vera Sans" font-size="8.00">last&#45;sample=((GstSample*) 0x5604a660e5f0)</text>
<text text-anchor="middle" x="2281.5" y="-177.6" font-family="Bitstream Vera Sans" font-size="8.00">processing&#45;deadline=15000000</text>
<text text-anchor="middle" x="2281.5" y="-168.6" font-family="Bitstream Vera Sans" font-size="8.00">device&#45;name=&quot;glamor textured video&quot;</text>
<text text-anchor="middle" x="2281.5" y="-159.6" font-family="Bitstream Vera Sans" font-size="8.00">double&#45;buffer=FALSE</text>
<text text-anchor="middle" x="2281.5" y="-150.6" font-family="Bitstream Vera Sans" font-size="8.00">colorkey=526352</text>
<text text-anchor="middle" x="2281.5" y="-141.6" font-family="Bitstream Vera Sans" font-size="8.00">window&#45;width=640</text>
<text text-anchor="middle" x="2281.5" y="-132.6" font-family="Bitstream Vera Sans" font-size="8.00">window&#45;height=480</text>
</g>
<g id="clust7" class="cluster">
<title>cluster_autovideosink0_actual_sink_xvimage_0x5604a66554c0_sink</title>
</g>
<g id="clust8" class="cluster">
<title>cluster_jpegdec0_0x5604a66389a0</title>
<path fill="#aaffaa" stroke="black" d="M1417,-66C1417,-66 1566,-66 1566,-66 1572,-66 1578,-72 1578,-78 1578,-78 1578,-141 1578,-141 1578,-147 1572,-153 1566,-153 1566,-153 1417,-153 1417,-153 1411,-153 1405,-147 1405,-141 1405,-141 1405,-78 1405,-78 1405,-72 1411,-66 1417,-66"/>
<text text-anchor="middle" x="1491.5" y="-142.6" font-family="Bitstream Vera Sans" font-size="8.00">GstJpegDec</text>
<text text-anchor="middle" x="1491.5" y="-133.6" font-family="Bitstream Vera Sans" font-size="8.00">jpegdec0</text>
<text text-anchor="middle" x="1491.5" y="-124.6" font-family="Bitstream Vera Sans" font-size="8.00">[&gt;]</text>
</g>
<g id="clust9" class="cluster">
<title>cluster_jpegdec0_0x5604a66389a0_sink</title>
</g>
<g id="clust10" class="cluster">
<title>cluster_jpegdec0_0x5604a66389a0_src</title>
</g>
<g id="clust11" class="cluster">
<title>cluster_rtpjpegdepay0_0x5604a66348e0</title>
<path fill="#aaffaa" stroke="black" d="M1091,-66C1091,-66 1240,-66 1240,-66 1246,-66 1252,-72 1252,-78 1252,-78 1252,-141 1252,-141 1252,-147 1246,-153 1240,-153 1240,-153 1091,-153 1091,-153 1085,-153 1079,-147 1079,-141 1079,-141 1079,-78 1079,-78 1079,-72 1085,-66 1091,-66"/>
<text text-anchor="middle" x="1165.5" y="-142.6" font-family="Bitstream Vera Sans" font-size="8.00">GstRtpJPEGDepay</text>
<text text-anchor="middle" x="1165.5" y="-133.6" font-family="Bitstream Vera Sans" font-size="8.00">rtpjpegdepay0</text>
<text text-anchor="middle" x="1165.5" y="-124.6" font-family="Bitstream Vera Sans" font-size="8.00">[&gt;]</text>
</g>
<g id="clust12" class="cluster">
<title>cluster_rtpjpegdepay0_0x5604a66348e0_sink</title>
</g>
<g id="clust13" class="cluster">
<title>cluster_rtpjpegdepay0_0x5604a66348e0_src</title>
</g>
<g id="clust14" class="cluster">
<title>cluster_rtpstreamdepay0_0x5604a6630080</title>
<path fill="#aaffaa" stroke="black" d="M760,-66C760,-66 909,-66 909,-66 915,-66 921,-72 921,-78 921,-78 921,-141 921,-141 921,-147 915,-153 909,-153 909,-153 760,-153 760,-153 754,-153 748,-147 748,-141 748,-141 748,-78 748,-78 748,-72 754,-66 760,-66"/>
<text text-anchor="middle" x="834.5" y="-142.6" font-family="Bitstream Vera Sans" font-size="8.00">GstRtpStreamDepay</text>
<text text-anchor="middle" x="834.5" y="-133.6" font-family="Bitstream Vera Sans" font-size="8.00">rtpstreamdepay0</text>
<text text-anchor="middle" x="834.5" y="-124.6" font-family="Bitstream Vera Sans" font-size="8.00">[&gt;]</text>
</g>
<g id="clust15" class="cluster">
<title>cluster_rtpstreamdepay0_0x5604a6630080_sink</title>
</g>
<g id="clust16" class="cluster">
<title>cluster_rtpstreamdepay0_0x5604a6630080_src</title>
</g>
<g id="clust17" class="cluster">
<title>cluster_tcpclientsrc0_0x5604a6620130</title>
<path fill="#ffaaaa" stroke="black" d="M126,-66C126,-66 188,-66 188,-66 194,-66 200,-72 200,-78 200,-78 200,-159 200,-159 200,-165 194,-171 188,-171 188,-171 126,-171 126,-171 120,-171 114,-165 114,-159 114,-159 114,-78 114,-78 114,-72 120,-66 126,-66"/>
<text text-anchor="middle" x="157" y="-160.6" font-family="Bitstream Vera Sans" font-size="8.00">GstTCPClientSrc</text>
<text text-anchor="middle" x="157" y="-151.6" font-family="Bitstream Vera Sans" font-size="8.00">tcpclientsrc0</text>
<text text-anchor="middle" x="157" y="-142.6" font-family="Bitstream Vera Sans" font-size="8.00">[&gt;]</text>
<text text-anchor="middle" x="157" y="-133.6" font-family="Bitstream Vera Sans" font-size="8.00">host=&quot;127.0.0.1&quot;</text>
<text text-anchor="middle" x="157" y="-124.6" font-family="Bitstream Vera Sans" font-size="8.00">port=5000</text>
</g>
<g id="clust18" class="cluster">
<title>cluster_tcpclientsrc0_0x5604a6620130_src</title>
</g>
<!-- legend -->
<g id="node1" class="node">
<title>legend</title>
<polygon fill="lightgrey" stroke="black" points="314,-58 0,-58 0,0 314,0 314,-58"/>
<text text-anchor="start" x="4" y="-46.8" font-family="sans" font-size="9.00">Legend</text>
<text text-anchor="start" x="4" y="-36.8" font-family="sans" font-size="9.00">Element&#45;States: [~] void&#45;pending, [0] null, [&#45;] ready, [=] paused, [&gt;] playing</text>
<text text-anchor="start" x="4" y="-26.8" font-family="sans" font-size="9.00">Pad&#45;Activation: [&#45;] none, [&gt;] push, [&lt;] pull</text>
<text text-anchor="start" x="4" y="-16.8" font-family="sans" font-size="9.00">Pad&#45;Flags: [b]locked, [f]lushing, [b]locking, [E]OS; upper&#45;case is set</text>
<text text-anchor="start" x="4" y="-6.8" font-family="sans" font-size="9.00">Pad&#45;Task: [T] has started task, [t] has paused task</text>
</g>
<!-- capsfilter0_0x5604a6650270_sink_0x5604a6623350 -->
<g id="node2" class="node">
<title>capsfilter0_0x5604a6650270_sink_0x5604a6623350</title>
<polygon fill="#aaaaff" stroke="black" points="451,-102 397,-102 397,-82 451,-82 451,-102"/>
<text text-anchor="middle" x="424" y="-94.8" font-family="sans" font-size="9.00">sink</text>
<text text-anchor="middle" x="424" y="-84.8" font-family="sans" font-size="9.00">[&gt;][bfb]</text>
</g>
<!-- capsfilter0_0x5604a6650270_src_0x5604a66235a0 -->
<g id="node3" class="node">
<title>capsfilter0_0x5604a6650270_src_0x5604a66235a0</title>
<polygon fill="#ffaaaa" stroke="black" points="538,-102 484,-102 484,-82 538,-82 538,-102"/>
<text text-anchor="middle" x="511" y="-94.8" font-family="sans" font-size="9.00">src</text>
<text text-anchor="middle" x="511" y="-84.8" font-family="sans" font-size="9.00">[&gt;][bfb]</text>
</g>
<!-- capsfilter0_0x5604a6650270_sink_0x5604a6623350&#45;&gt;capsfilter0_0x5604a6650270_src_0x5604a66235a0 -->
<!-- rtpstreamdepay0_0x5604a6630080_sink_0x5604a6622320 -->
<g id="node4" class="node">
<title>rtpstreamdepay0_0x5604a6630080_sink_0x5604a6622320</title>
<polygon fill="#aaaaff" stroke="black" points="818,-102 764,-102 764,-82 818,-82 818,-102"/>
<text text-anchor="middle" x="791" y="-94.8" font-family="sans" font-size="9.00">sink</text>
<text text-anchor="middle" x="791" y="-84.8" font-family="sans" font-size="9.00">[&gt;][bfb]</text>
</g>
<!-- capsfilter0_0x5604a6650270_src_0x5604a66235a0&#45;&gt;rtpstreamdepay0_0x5604a6630080_sink_0x5604a6622320 -->
<g id="edge2" class="edge">
<title>capsfilter0_0x5604a6650270_src_0x5604a66235a0&#45;&gt;rtpstreamdepay0_0x5604a6630080_sink_0x5604a6622320</title>
<path fill="none" stroke="black" d="M538.15,-92C587.93,-92 696.39,-92 753.37,-92"/>
<polygon fill="black" stroke="black" points="753.71,-95.5 763.71,-92 753.71,-88.5 753.71,-95.5"/>
<text text-anchor="start" x="598" y="-124.8" font-family="monospace" font-size="9.00">application/x&#45;rtp&#45;stream</text>
<text text-anchor="start" x="598" y="-114.8" font-family="monospace" font-size="9.00"> &#160;&#160;&#160;&#160;&#160;&#160;encoding&#45;name: JPEG</text>
<text text-anchor="start" x="598" y="-104.8" font-family="monospace" font-size="9.00"> &#160;&#160;&#160;&#160;&#160;&#160;&#160;&#160;&#160;&#160;&#160;&#160;&#160;&#160;media: video</text>
<text text-anchor="start" x="598" y="-94.8" font-family="monospace" font-size="9.00"> &#160;&#160;&#160;&#160;&#160;&#160;&#160;&#160;&#160;clock&#45;rate: 90000</text>
</g>
<!-- rtpstreamdepay0_0x5604a6630080_src_0x5604a6622570 -->
<g id="node12" class="node">
<title>rtpstreamdepay0_0x5604a6630080_src_0x5604a6622570</title>
<polygon fill="#ffaaaa" stroke="black" points="905,-102 851,-102 851,-82 905,-82 905,-102"/>
<text text-anchor="middle" x="878" y="-94.8" font-family="sans" font-size="9.00">src</text>
<text text-anchor="middle" x="878" y="-84.8" font-family="sans" font-size="9.00">[&gt;][bfb]</text>
</g>
<!-- rtpstreamdepay0_0x5604a6630080_sink_0x5604a6622320&#45;&gt;rtpstreamdepay0_0x5604a6630080_src_0x5604a6622570 -->
<!-- _proxypad0_0x5604a6646090 -->
<g id="node5" class="node">
<title>_proxypad0_0x5604a6646090</title>
<polygon fill="#ddddff" stroke="black" points="1911,-129 1857,-129 1857,-109 1911,-109 1911,-129"/>
<text text-anchor="middle" x="1884" y="-121.8" font-family="sans" font-size="9.00">proxypad0</text>
<text text-anchor="middle" x="1884" y="-111.8" font-family="sans" font-size="9.00">[&gt;][bfb]</text>
</g>
<!-- autovideosink0_actual_sink_xvimage_0x5604a66554c0_sink_0x5604a66237f0 -->
<g id="node7" class="node">
<title>autovideosink0_actual_sink_xvimage_0x5604a66554c0_sink_0x5604a66237f0</title>
<polygon fill="#aaaaff" stroke="black" points="2308,-110 2254,-110 2254,-90 2308,-90 2308,-110"/>
<text text-anchor="middle" x="2281" y="-102.8" font-family="sans" font-size="9.00">sink</text>
<text text-anchor="middle" x="2281" y="-92.8" font-family="sans" font-size="9.00">[&gt;][bfb]</text>
</g>
<!-- _proxypad0_0x5604a6646090&#45;&gt;autovideosink0_actual_sink_xvimage_0x5604a66554c0_sink_0x5604a66237f0 -->
<g id="edge4" class="edge">
<title>_proxypad0_0x5604a6646090&#45;&gt;autovideosink0_actual_sink_xvimage_0x5604a66554c0_sink_0x5604a66237f0</title>
<path fill="none" stroke="black" d="M1911.22,-117.74C1979.77,-114.44 2164.41,-105.56 2243.37,-101.76"/>
<polygon fill="black" stroke="black" points="2243.97,-105.24 2253.79,-101.26 2243.63,-98.25 2243.97,-105.24"/>
<text text-anchor="start" x="1927" y="-218.8" font-family="monospace" font-size="9.00">video/x&#45;raw</text>
<text text-anchor="start" x="1927" y="-208.8" font-family="monospace" font-size="9.00"> &#160;&#160;&#160;&#160;&#160;&#160;&#160;&#160;&#160;&#160;&#160;&#160;&#160;format: I420</text>
<text text-anchor="start" x="1927" y="-198.8" font-family="monospace" font-size="9.00"> &#160;&#160;&#160;&#160;&#160;&#160;&#160;&#160;&#160;&#160;&#160;&#160;&#160;&#160;width: 640</text>
<text text-anchor="start" x="1927" y="-188.8" font-family="monospace" font-size="9.00"> &#160;&#160;&#160;&#160;&#160;&#160;&#160;&#160;&#160;&#160;&#160;&#160;&#160;height: 480</text>
<text text-anchor="start" x="1927" y="-178.8" font-family="monospace" font-size="9.00"> &#160;&#160;&#160;&#160;&#160;interlace&#45;mode: progressive</text>
<text text-anchor="start" x="1927" y="-168.8" font-family="monospace" font-size="9.00"> &#160;&#160;&#160;&#160;&#160;multiview&#45;mode: mono</text>
<text text-anchor="start" x="1927" y="-158.8" font-family="monospace" font-size="9.00"> &#160;&#160;&#160;&#160;multiview&#45;flags: 0:ffffffff:/right&#45;view...</text>
<text text-anchor="start" x="1927" y="-148.8" font-family="monospace" font-size="9.00"> &#160;pixel&#45;aspect&#45;ratio: 1/1</text>
<text text-anchor="start" x="1927" y="-138.8" font-family="monospace" font-size="9.00"> &#160;&#160;&#160;&#160;&#160;&#160;&#160;&#160;chroma&#45;site: jpeg</text>
<text text-anchor="start" x="1927" y="-128.8" font-family="monospace" font-size="9.00"> &#160;&#160;&#160;&#160;&#160;&#160;&#160;&#160;colorimetry: 1:4:0:0</text>
<text text-anchor="start" x="1927" y="-118.8" font-family="monospace" font-size="9.00"> &#160;&#160;&#160;&#160;&#160;&#160;&#160;&#160;&#160;&#160;framerate: 0/1</text>
</g>
<!-- autovideosink0_0x5604a663e030_sink_0x5604a6642050 -->
<g id="node6" class="node">
<title>autovideosink0_0x5604a663e030_sink_0x5604a6642050</title>
<polygon fill="#ddddff" stroke="black" points="1911,-102 1857,-102 1857,-82 1911,-82 1911,-102"/>
<text text-anchor="middle" x="1884" y="-94.8" font-family="sans" font-size="9.00">sink</text>
<text text-anchor="middle" x="1884" y="-84.8" font-family="sans" font-size="9.00">[&gt;][bfb]</text>
</g>
<!-- autovideosink0_0x5604a663e030_sink_0x5604a6642050&#45;&gt;_proxypad0_0x5604a6646090 -->
<g id="edge3" class="edge">
<title>autovideosink0_0x5604a663e030_sink_0x5604a6642050&#45;&gt;_proxypad0_0x5604a6646090</title>
<path fill="none" stroke="black" stroke-dasharray="5,2" d="M1884,-102.12C1884,-102.27 1884,-102.41 1884,-102.55"/>
<polygon fill="black" stroke="black" points="1880.5,-98.98 1884,-108.98 1887.5,-98.98 1880.5,-98.98"/>
</g>
<!-- jpegdec0_0x5604a66389a0_sink_0x5604a6622c60 -->
<g id="node8" class="node">
<title>jpegdec0_0x5604a66389a0_sink_0x5604a6622c60</title>
<polygon fill="#aaaaff" stroke="black" points="1475,-102 1421,-102 1421,-82 1475,-82 1475,-102"/>
<text text-anchor="middle" x="1448" y="-94.8" font-family="sans" font-size="9.00">sink</text>
<text text-anchor="middle" x="1448" y="-84.8" font-family="sans" font-size="9.00">[&gt;][bfb]</text>
</g>
<!-- jpegdec0_0x5604a66389a0_src_0x5604a6622eb0 -->
<g id="node9" class="node">
<title>jpegdec0_0x5604a66389a0_src_0x5604a6622eb0</title>
<polygon fill="#ffaaaa" stroke="black" points="1562,-102 1508,-102 1508,-82 1562,-82 1562,-102"/>
<text text-anchor="middle" x="1535" y="-94.8" font-family="sans" font-size="9.00">src</text>
<text text-anchor="middle" x="1535" y="-84.8" font-family="sans" font-size="9.00">[&gt;][bfb]</text>
</g>
<!-- jpegdec0_0x5604a66389a0_sink_0x5604a6622c60&#45;&gt;jpegdec0_0x5604a66389a0_src_0x5604a6622eb0 -->
<!-- jpegdec0_0x5604a66389a0_src_0x5604a6622eb0&#45;&gt;autovideosink0_0x5604a663e030_sink_0x5604a6642050 -->
<g id="edge6" class="edge">
<title>jpegdec0_0x5604a66389a0_src_0x5604a6622eb0&#45;&gt;autovideosink0_0x5604a663e030_sink_0x5604a6642050</title>
<path fill="none" stroke="black" d="M1562.08,-92C1623.25,-92 1776.06,-92 1846.45,-92"/>
<polygon fill="black" stroke="black" points="1846.62,-95.5 1856.62,-92 1846.62,-88.5 1846.62,-95.5"/>
<text text-anchor="start" x="1586" y="-194.8" font-family="monospace" font-size="9.00">video/x&#45;raw</text>
<text text-anchor="start" x="1586" y="-184.8" font-family="monospace" font-size="9.00"> &#160;&#160;&#160;&#160;&#160;&#160;&#160;&#160;&#160;&#160;&#160;&#160;&#160;format: I420</text>
<text text-anchor="start" x="1586" y="-174.8" font-family="monospace" font-size="9.00"> &#160;&#160;&#160;&#160;&#160;&#160;&#160;&#160;&#160;&#160;&#160;&#160;&#160;&#160;width: 640</text>
<text text-anchor="start" x="1586" y="-164.8" font-family="monospace" font-size="9.00"> &#160;&#160;&#160;&#160;&#160;&#160;&#160;&#160;&#160;&#160;&#160;&#160;&#160;height: 480</text>
<text text-anchor="start" x="1586" y="-154.8" font-family="monospace" font-size="9.00"> &#160;&#160;&#160;&#160;&#160;interlace&#45;mode: progressive</text>
<text text-anchor="start" x="1586" y="-144.8" font-family="monospace" font-size="9.00"> &#160;&#160;&#160;&#160;&#160;multiview&#45;mode: mono</text>
<text text-anchor="start" x="1586" y="-134.8" font-family="monospace" font-size="9.00"> &#160;&#160;&#160;&#160;multiview&#45;flags: 0:ffffffff:/right&#45;view...</text>
<text text-anchor="start" x="1586" y="-124.8" font-family="monospace" font-size="9.00"> &#160;pixel&#45;aspect&#45;ratio: 1/1</text>
<text text-anchor="start" x="1586" y="-114.8" font-family="monospace" font-size="9.00"> &#160;&#160;&#160;&#160;&#160;&#160;&#160;&#160;chroma&#45;site: jpeg</text>
<text text-anchor="start" x="1586" y="-104.8" font-family="monospace" font-size="9.00"> &#160;&#160;&#160;&#160;&#160;&#160;&#160;&#160;colorimetry: 1:4:0:0</text>
<text text-anchor="start" x="1586" y="-94.8" font-family="monospace" font-size="9.00"> &#160;&#160;&#160;&#160;&#160;&#160;&#160;&#160;&#160;&#160;framerate: 0/1</text>
</g>
<!-- rtpjpegdepay0_0x5604a66348e0_sink_0x5604a66227c0 -->
<g id="node10" class="node">
<title>rtpjpegdepay0_0x5604a66348e0_sink_0x5604a66227c0</title>
<polygon fill="#aaaaff" stroke="black" points="1149,-102 1095,-102 1095,-82 1149,-82 1149,-102"/>
<text text-anchor="middle" x="1122" y="-94.8" font-family="sans" font-size="9.00">sink</text>
<text text-anchor="middle" x="1122" y="-84.8" font-family="sans" font-size="9.00">[&gt;][bfb]</text>
</g>
<!-- rtpjpegdepay0_0x5604a66348e0_src_0x5604a6622a10 -->
<g id="node11" class="node">
<title>rtpjpegdepay0_0x5604a66348e0_src_0x5604a6622a10</title>
<polygon fill="#ffaaaa" stroke="black" points="1236,-102 1182,-102 1182,-82 1236,-82 1236,-102"/>
<text text-anchor="middle" x="1209" y="-94.8" font-family="sans" font-size="9.00">src</text>
<text text-anchor="middle" x="1209" y="-84.8" font-family="sans" font-size="9.00">[&gt;][bfb]</text>
</g>
<!-- rtpjpegdepay0_0x5604a66348e0_sink_0x5604a66227c0&#45;&gt;rtpjpegdepay0_0x5604a66348e0_src_0x5604a6622a10 -->
<!-- rtpjpegdepay0_0x5604a66348e0_src_0x5604a6622a10&#45;&gt;jpegdec0_0x5604a66389a0_sink_0x5604a6622c60 -->
<g id="edge8" class="edge">
<title>rtpjpegdepay0_0x5604a66348e0_src_0x5604a6622a10&#45;&gt;jpegdec0_0x5604a66389a0_sink_0x5604a6622c60</title>
<path fill="none" stroke="black" d="M1236.27,-92C1278.73,-92 1362.55,-92 1410.7,-92"/>
<polygon fill="black" stroke="black" points="1410.97,-95.5 1420.97,-92 1410.97,-88.5 1410.97,-95.5"/>
<text text-anchor="start" x="1260" y="-134.8" font-family="monospace" font-size="9.00">image/jpeg</text>
<text text-anchor="start" x="1260" y="-124.8" font-family="monospace" font-size="9.00"> &#160;&#160;&#160;&#160;&#160;&#160;&#160;&#160;&#160;&#160;&#160;&#160;&#160;parsed: true</text>
<text text-anchor="start" x="1260" y="-114.8" font-family="monospace" font-size="9.00"> &#160;&#160;&#160;&#160;&#160;&#160;&#160;&#160;&#160;&#160;framerate: 0/1</text>
<text text-anchor="start" x="1260" y="-104.8" font-family="monospace" font-size="9.00"> &#160;&#160;&#160;&#160;&#160;&#160;&#160;&#160;&#160;&#160;&#160;&#160;&#160;&#160;width: 640</text>
<text text-anchor="start" x="1260" y="-94.8" font-family="monospace" font-size="9.00"> &#160;&#160;&#160;&#160;&#160;&#160;&#160;&#160;&#160;&#160;&#160;&#160;&#160;height: 480</text>
</g>
<!-- rtpstreamdepay0_0x5604a6630080_src_0x5604a6622570&#45;&gt;rtpjpegdepay0_0x5604a66348e0_sink_0x5604a66227c0 -->
<g id="edge10" class="edge">
<title>rtpstreamdepay0_0x5604a6630080_src_0x5604a6622570&#45;&gt;rtpjpegdepay0_0x5604a66348e0_sink_0x5604a66227c0</title>
<path fill="none" stroke="black" d="M905.36,-92C948.73,-92 1035.22,-92 1084.47,-92"/>
<polygon fill="black" stroke="black" points="1084.67,-95.5 1094.67,-92 1084.67,-88.5 1084.67,-95.5"/>
<text text-anchor="start" x="929" y="-124.8" font-family="monospace" font-size="9.00">application/x&#45;rtp</text>
<text text-anchor="start" x="929" y="-114.8" font-family="monospace" font-size="9.00"> &#160;&#160;&#160;&#160;&#160;&#160;encoding&#45;name: JPEG</text>
<text text-anchor="start" x="929" y="-104.8" font-family="monospace" font-size="9.00"> &#160;&#160;&#160;&#160;&#160;&#160;&#160;&#160;&#160;&#160;&#160;&#160;&#160;&#160;media: video</text>
<text text-anchor="start" x="929" y="-94.8" font-family="monospace" font-size="9.00"> &#160;&#160;&#160;&#160;&#160;&#160;&#160;&#160;&#160;clock&#45;rate: 90000</text>
</g>
<!-- tcpclientsrc0_0x5604a6620130_src_0x5604a66220d0 -->
<g id="node13" class="node">
<title>tcpclientsrc0_0x5604a6620130_src_0x5604a66220d0</title>
<polygon fill="#ffaaaa" stroke="black" points="184,-102 130,-102 130,-82 184,-82 184,-102"/>
<text text-anchor="middle" x="157" y="-94.8" font-family="sans" font-size="9.00">src</text>
<text text-anchor="middle" x="157" y="-84.8" font-family="sans" font-size="9.00">[&gt;][bfb][T]</text>
</g>
<!-- tcpclientsrc0_0x5604a6620130_src_0x5604a66220d0&#45;&gt;capsfilter0_0x5604a6650270_sink_0x5604a6623350 -->
<g id="edge11" class="edge">
<title>tcpclientsrc0_0x5604a6620130_src_0x5604a66220d0&#45;&gt;capsfilter0_0x5604a6650270_sink_0x5604a6623350</title>
<path fill="none" stroke="black" d="M184.38,-92C232,-92 332.4,-92 386.54,-92"/>
<polygon fill="black" stroke="black" points="386.73,-95.5 396.73,-92 386.73,-88.5 386.73,-95.5"/>
<text text-anchor="middle" x="330" y="-94.8" font-family="monospace" font-size="9.00">ANY</text>
</g>
</g>
</svg>
