<?xml version="1.0" encoding="UTF-8" standalone="no"?>
<!-- Created with Inkscape (http://www.inkscape.org/) -->

<svg
   width="512.00006"
   height="512.00006"
   viewBox="0 0 135.46668 135.46668"
   version="1.1"
   id="svg5"
   xml:space="preserve"
   sodipodi:docname="icon-dark.svg"
   inkscape:version="1.2.2 (b0a8486541, 2022-12-01)"
   inkscape:export-filename="icon-dark.png"
   inkscape:export-xdpi="109.47681"
   inkscape:export-ydpi="109.47681"
   xmlns:inkscape="http://www.inkscape.org/namespaces/inkscape"
   xmlns:sodipodi="http://sodipodi.sourceforge.net/DTD/sodipodi-0.dtd"
   xmlns="http://www.w3.org/2000/svg"
   xmlns:svg="http://www.w3.org/2000/svg"><sodipodi:namedview
     id="namedview7"
     pagecolor="#ffffff"
     bordercolor="#999999"
     borderopacity="1"
     inkscape:showpageshadow="0"
     inkscape:pageopacity="0"
     inkscape:pagecheckerboard="0"
     inkscape:deskcolor="#d1d1d1"
     inkscape:document-units="mm"
     showgrid="true"
     inkscape:zoom="1.4142136"
     inkscape:cx="46.315493"
     inkscape:cy="248.90158"
     inkscape:window-width="2560"
     inkscape:window-height="1371"
     inkscape:window-x="0"
     inkscape:window-y="0"
     inkscape:window-maximized="1"
     inkscape:current-layer="g14876"
     inkscape:lockguides="true"><inkscape:grid
       type="xygrid"
       id="grid365"
       spacingx="3.96875"
       spacingy="3.96875"
       originx="-35.718751"
       originy="-79.374985" /></sodipodi:namedview><defs
     id="defs2"><filter
       style="color-interpolation-filters:sRGB;"
       inkscape:label="Invert"
       id="filter1705"
       x="0"
       y="0"
       width="1"
       height="1"><feColorMatrix
         type="hueRotate"
         values="180"
         result="color1"
         id="feColorMatrix1701" /><feColorMatrix
         values="-1 0 0 0 1 0 -1 0 0 1 0 0 -1 0 1 -0.21 -0.72 -0.07 2 0 "
         result="color2"
         id="feColorMatrix1703" /></filter><filter
       style="color-interpolation-filters:sRGB;"
       inkscape:label="Invert"
       id="filter1711"
       x="0"
       y="0"
       width="1"
       height="1"><feColorMatrix
         type="hueRotate"
         values="180"
         result="color1"
         id="feColorMatrix1707" /><feColorMatrix
         values="-1 0 0 0 1 0 -1 0 0 1 0 0 -1 0 1 -0.21 -0.72 -0.07 2 0 "
         result="color2"
         id="feColorMatrix1709" /></filter></defs><g
     inkscape:label="Layer 1"
     inkscape:groupmode="layer"
     id="layer1"
     transform="translate(-35.718758,-79.375)"><g
       id="g14876"><ellipse
         style="fill:#ffffff;stroke-width:3.29869;stop-color:#000000;filter:url(#filter1711)"
         id="path1465"
         cx="103.4521"
         cy="147.10834"
         rx="67.733337"
         ry="67.733345" /><g
         id="g1463"
         transform="matrix(0.73826149,0,0,0.73826149,27.077398,38.503918)"
         style="filter:url(#filter1705)"><path
           id="path650"
           style="fill:#4d4d4d;stroke-width:1.32292;stop-color:#000000"
           d="m 71.753251,129.94917 -11.285616,0.25839 -4.894275,4.98212 6.159314,1.26297 10.020577,-1.59163 z" /><path
           id="path1230"
           style="fill:#4d4d4d;stroke-width:1.32292;stop-color:#000000"
           d="m 132.88802,128.54926 14.11852,-0.3235 3.14916,-3.44371 -4.06642,-1.7291 -13.92421,2.21176 a 12.031399,12.01787 0 0 1 0.0723,0.19171 12.031399,12.01787 0 0 1 0.15968,0.48473 12.031399,12.01787 0 0 1 0.13901,0.49093 12.031399,12.01787 0 0 1 0.11834,0.49609 12.031399,12.01787 0 0 1 0.0971,0.50126 12.031399,12.01787 0 0 1 0.0755,0.50436 12.031399,12.01787 0 0 1 0.0543,0.50747 12.031399,12.01787 0 0 1 0.007,0.108 z" /><path
           id="path1228"
           style="fill:#4d4d4d;stroke-width:1.32292;stop-color:#000000"
           d="m 108.89207,128.96164 -1.00821,0.16019 0.99942,-0.0227 a 12.031399,12.01787 0 0 1 0.009,-0.13746 z" /><path
           id="path648"
           style="fill:#4d4d4d;stroke-width:1.32292;stop-color:#000000"
           d="m 134.23936,142.12621 6.92774,3.41271 5.34955,-0.14004 -2.35955,-4.17391 -9.91774,-3.30626 z" /><path
           id="path1296"
           style="fill:#4d4d4d;stroke-width:1.32292;stop-color:#000000"
           d="m 106.41625,128.41955 v 0.22376 l 1.40612,0.46871 z" /><path
           id="path1292"
           style="fill:#4d4d4d;stroke-width:1.32292;stop-color:#000000"
           d="m 67.030542,109.0166 -5.375383,0.96067 1.871204,4.36769 8.226888,2.74247 v -5.74436 z" /><path
           d="m 47.007692,187.39691 c 0,-17.3743 14.075825,-31.45012 31.450119,-31.45012 h 16.121933 c 17.374296,0 31.450126,14.07582 31.450126,31.45012 0,2.89278 -2.34598,5.23875 -5.23875,5.23875 H 52.246439 c -2.892776,0 -5.238747,-2.34597 -5.238747,-5.23875 z m 107.473678,5.23875 h -24.324 c 0.9525,-1.65806 1.51694,-3.5807 1.51694,-5.64444 v -1.41112 c 0,-10.7068 -4.78014,-20.31998 -12.31194,-26.77581 0.42333,-0.0177 0.82903,-0.0353 1.25236,-0.0353 h 10.83028 c 15.71623,0 28.4515,12.73526 28.4515,28.45151 0,2.9986 -2.43417,5.41514 -5.41514,5.41514 z"
           id="path314"
           style="stroke-width:0.176389"
           sodipodi:nodetypes="sssssssccsscssssc" /><path
           d="m 67.030411,109.01645 c 0.679654,-1.02919 0.485281,-2.39923 -0.449544,-3.20186 l -4.238488,-3.64224 c -0.840833,-0.71829 -2.058001,-0.79005 -2.971501,-0.17222 -12.555557,8.49169 -15.850676,25.55748 -7.35899,38.11303 0.617828,0.9135 1.774218,1.30004 2.822024,0.9464 l 5.289771,-1.80248 c 1.166464,-0.39691 1.856885,-1.59611 1.609242,-2.80435 l -1.265081,-6.24495 c -0.214372,-1.06062 -1.101621,-1.85848 -2.177886,-1.95157 l -3.888655,-0.35814 c -0.726412,-4.71578 0.209889,-9.56499 2.639711,-13.67135 l 3.737385,1.11873 c 1.038634,0.31085 2.154055,-0.0959 2.747879,-1.00049 l 3.499055,-5.32508 z"
           id="path323"
           style="stroke-width:0.061267"
           inkscape:transform-center-x="29.081115"
           inkscape:transform-center-y="-6.0168167" /><path
           d="m 146.08928,123.05316 c -0.17929,-1.00004 0.41378,-1.97348 1.38242,-2.27655 l 4.39288,-1.37643 c 0.87008,-0.26983 1.81448,0.0721 2.30463,0.83693 4.15105,6.47772 4.58185,14.27433 1.84159,20.8811 -1.70692,4.11537 -4.64423,7.76907 -8.67921,10.35477 -0.76486,0.49014 -1.76574,0.40621 -2.44351,-0.20246 l -3.41608,-3.08583 c -0.75348,-0.68004 -0.88558,-1.81222 -0.30489,-2.6459 l 2.9901,-4.3138 c 0.50747,-0.7328 1.43856,-1.04774 2.28328,-0.76784 l 3.05915,0.99479 c 2.08473,-3.33202 2.9547,-7.30622 2.45269,-11.20447 l -3.19227,-0.37001 c -0.88712,-0.10288 -1.59877,-0.77375 -1.75366,-1.65155 l -0.91439,-5.16851 z"
           id="path469"
           style="stroke-width:0.0504687"
           sodipodi:nodetypes="cccsssccccccccccc"
           inkscape:transform-center-x="-26.042851"
           inkscape:transform-center-y="6.0009698" /><path
           id="path831"
           style="fill:#000000;stroke-width:4.60295;stop-color:#000000"
           d="m 86.518758,104.42463 c -12.470663,0 -22.57795,10.10678 -22.57795,22.57744 0,12.47065 10.107287,22.57795 22.57795,22.57795 4.78266,0 33.536942,0.3476 37.965122,-0.0408 0.007,-6.1e-4 0.01,-0.005 0.0145,-0.007 a 19.755545,19.755545 0 0 0 18.46502,-19.70681 19.755545,19.755545 0 0 0 -6.67762,-14.80581 c -0.002,-0.002 -0.003,-0.004 -0.005,-0.006 -9.79588,-9.25834 -43.152188,-10.5885 -49.761822,-10.5885 z m 0.533818,9.54309 a 12.215879,13.033662 0 0 1 12.216308,13.03383 12.215879,13.033662 0 0 1 -2.502173,7.88996 18.455265,5.6913838 6.3008458 0 0 -8.83822,-1.69757 18.455265,5.6913838 6.3008458 0 0 -11.62513,-0.0186 12.215879,13.033662 0 0 1 -1.466577,-6.17378 12.215879,13.033662 0 0 1 12.215792,-13.03383 z m 35.228854,6.41098 a 9.6515083,9.6515083 0 0 1 9.65161,9.65161 9.6515083,9.6515083 0 0 1 -4.23643,7.98039 13.573073,5.2583351 3.055579 0 0 -0.14263,-0.0403 13.573073,5.2583351 3.055579 0 0 -0.25218,-0.0682 13.573073,5.2583351 3.055579 0 0 -0.25528,-0.0661 13.573073,5.2583351 3.055579 0 0 -0.25839,-0.0646 13.573073,5.2583351 3.055579 0 0 -0.26096,-0.062 13.573073,5.2583351 3.055579 0 0 -0.26407,-0.0605 13.573073,5.2583351 3.055579 0 0 -0.26665,-0.0584 13.573073,5.2583351 3.055579 0 0 -0.26872,-0.0558 13.573073,5.2583351 3.055579 0 0 -0.2713,-0.0538 13.573073,5.2583351 3.055579 0 0 -0.27388,-0.0517 13.573073,5.2583351 3.055579 0 0 -0.27544,-0.0496 13.573073,5.2583351 3.055579 0 0 -0.27802,-0.0475 13.573073,5.2583351 3.055579 0 0 -0.27957,-0.045 13.573073,5.2583351 3.055579 0 0 -0.28112,-0.0424 13.573073,5.2583351 3.055579 0 0 -0.28267,-0.0408 13.573073,5.2583351 3.055579 0 0 -0.28473,-0.0382 13.573073,5.2583351 3.055579 0 0 -0.28526,-0.0357 13.573073,5.2583351 3.055579 0 0 -0.28732,-0.0336 13.573073,5.2583351 3.055579 0 0 -0.28784,-0.031 13.573073,5.2583351 3.055579 0 0 -0.28887,-0.0289 13.573073,5.2583351 3.055579 0 0 -0.28939,-0.0264 13.573073,5.2583351 3.055579 0 0 -0.29042,-0.0243 13.573073,5.2583351 3.055579 0 0 -0.29093,-0.0212 13.573073,5.2583351 3.055579 0 0 -0.29146,-0.0196 13.573073,5.2583351 3.055579 0 0 -0.29146,-0.0165 13.573073,5.2583351 3.055579 0 0 -0.85162,-0.0351 13.573073,5.2583351 3.055579 0 0 -0.84956,-0.0139 13.573073,5.2583351 3.055579 0 0 -0.84336,0.007 13.573073,5.2583351 3.055579 0 0 -0.83509,0.0274 13.573073,5.2583351 3.055579 0 0 -0.82269,0.0486 13.573073,5.2583351 3.055579 0 0 -0.80667,0.0687 13.573073,5.2583351 3.055579 0 0 -0.21549,0.0243 9.6515083,9.6515083 0 0 1 -3.04374,-7.02489 9.6515083,9.6515083 0 0 1 9.6516,-9.65161 z" /></g></g></g></svg>
